<?xml version="1.0" encoding="UTF-8" standalone="no"?>
<!-- Generator: Adobe Illustrator 14.0.0, SVG Export Plug-In . SVG Version: 6.00 Build 43363)  -->

<svg
   xmlns:dc="http://purl.org/dc/elements/1.1/"
   xmlns:cc="http://creativecommons.org/ns#"
   xmlns:rdf="http://www.w3.org/1999/02/22-rdf-syntax-ns#"
   xmlns:svg="http://www.w3.org/2000/svg"
   xmlns="http://www.w3.org/2000/svg"
   xmlns:sodipodi="http://sodipodi.sourceforge.net/DTD/sodipodi-0.dtd"
   xmlns:inkscape="http://www.inkscape.org/namespaces/inkscape"
   version="1.1"
   id="Layer_1"
   x="0px"
   y="0px"
   width="76.304749"
   height="145.47014"
   viewBox="0 0 76.304749 145.47014"
   enable-background="new 0 0 612 792"
   xml:space="preserve"
   inkscape:version="0.91 r13725"
   sodipodi:docname="logo_color.svg"><metadata
     id="metadata467"><rdf:RDF><cc:Work
         rdf:about=""><dc:format>image/svg+xml</dc:format><dc:type
           rdf:resource="http://purl.org/dc/dcmitype/StillImage" /><dc:title></dc:title></cc:Work></rdf:RDF></metadata><defs
     id="defs465"><inkscape:perspective
       sodipodi:type="inkscape:persp3d"
       inkscape:vp_x="0 : 396 : 1"
       inkscape:vp_y="0 : 1000 : 0"
       inkscape:vp_z="612 : 396 : 1"
       inkscape:persp3d-origin="306 : 264 : 1"
       id="perspective469" /></defs><sodipodi:namedview
     pagecolor="#ffffff"
     bordercolor="#666666"
     borderopacity="1"
     objecttolerance="10"
     gridtolerance="10"
     guidetolerance="10"
     inkscape:pageopacity="0"
     inkscape:pageshadow="2"
     inkscape:window-width="1184"
     inkscape:window-height="656"
     id="namedview463"
     showgrid="false"
     inkscape:zoom="1.6999133"
     inkscape:cx="142.435"
     inkscape:cy="52.807921"
     inkscape:window-x="104"
     inkscape:window-y="104"
     inkscape:window-maximized="0"
     inkscape:current-layer="Layer_1"
     fit-margin-top="0"
     fit-margin-left="0"
     fit-margin-right="0"
     fit-margin-bottom="0" /><g
     id="g59"
     transform="translate(-163.565,-350.399)"><radialGradient
       id="SVGID_1_"
       cx="207.9536"
       cy="440.13281"
       r="44.995098"
       gradientUnits="userSpaceOnUse"><stop
         offset="0.0381"
         style="stop-color:#FCE43A"
         id="stop62" /><stop
         offset="0.6907"
         style="stop-color:#A48B24"
         id="stop64" /><stop
         offset="0.9905"
         style="stop-color:#816916"
         id="stop66" /></radialGradient><path
       stroke-miterlimit="3.864"
       d="m 233.002,485.65 c -0.018,0.094 -0.021,0.213 -0.009,0.363 0.036,0.385 0.374,1.229 -0.487,1.229 -0.974,-0.002 -1.011,-1.336 -2.248,-1.336 -1.459,-0.002 -3.784,0.732 -4.87,1.328 -0.601,0.314 -1.502,1.822 -1.95,1.822 -0.263,0 -1.088,-0.002 -1.611,-0.002 -1.91,-0.002 -2.624,1.225 -2.626,3.084 -1.686,0.385 -4.498,0.52 -4.5,2.203 l -45.782,-0.852 c -1.348,-1.932 -3.856,-3.164 -3.854,-6.322 0.002,-1.754 0.94,-2.455 1.24,-3.857 0.076,-0.492 0.039,-0.949 0.451,-1.229 0.862,-0.596 1.725,-0.875 2.251,-1.857 0.525,-0.982 0.001,-1.615 0.002,-2.877 0.002,-1.229 0.752,-1.578 0.753,-3.088 0.001,-1.088 -0.372,-2.035 -0.371,-3.053 0.002,-1.475 0.754,-4 1.316,-5.264 0.188,-0.42 0.938,-1.297 0.938,-1.93 10e-4,-0.42 -0.374,-0.631 -0.373,-1.053 0,-0.455 0.301,-0.771 0.302,-1.227 0,-0.598 -0.675,-0.457 -0.674,-1.16 0.002,-1.754 1.052,-3.016 1.055,-4.98 10e-4,-0.947 -0.562,-1.195 -0.561,-2.283 0.001,-0.947 0.49,-2.771 1.203,-3.262 0.45,-0.314 1.05,-0.49 1.312,-1.121 0.338,-0.842 -0.186,-1.51 0.189,-2.211 0.375,-0.176 1.051,-0.35 1.125,-0.596 0.263,-0.807 -0.073,-1.369 0.376,-1.93 0.487,-0.631 1.913,-1.297 2.363,-2.033 0.601,-0.945 1.164,-1.787 1.876,-2.629 l 0.002,-2.879 c 0.603,-1.473 2.14,-1.998 2.516,-3.26 0.15,-0.49 -0.15,-0.809 0.002,-1.299 0.225,-0.631 0.86,-0.561 1.051,-1.332 -0.15,-0.07 -0.675,-0.422 -0.675,-0.703 0,-0.279 0.375,-0.35 0.488,-0.596 0.001,-1.438 0.526,-2.105 1.202,-3.158 0.3,-0.49 1.312,-0.699 1.312,-1.576 0.001,-0.666 -0.448,-1.02 -0.448,-1.686 0,-0.316 0,-0.598 10e-4,-1.123 0.001,-0.983 -0.672,-1.474 -0.672,-2.456 0.001,-0.492 0.301,-0.878 0.302,-1.51 0.002,-0.562 -0.372,-0.913 -0.372,-1.474 0.003,-2.949 3.752,-5.015 6.824,-5.012 0.599,0.002 1.235,0.282 1.985,0.283 1.199,0.001 1.164,-1.578 1.765,-2.455 0.825,-1.191 2.248,-0.629 3.673,-1.398 1.573,-0.877 1.611,-2.245 2.812,-3.086 0.713,-0.492 1.575,-0.664 1.576,-1.928 l 0.002,-1.229 c 0.639,-1.229 2.251,-2.912 2.252,-4.033 0.002,-0.773 -1.011,-1.02 -1.122,-1.756 -0.334,-1.931 -1.945,-2.459 -1.942,-4.985 10e-4,-0.702 0.525,-1.087 0.639,-1.754 0.339,-1.896 1.089,-2.665 1.802,-4.034 0.264,-0.527 -0.111,-1.018 0.189,-1.508 0.15,-0.246 1.126,-1.018 1.126,-1.475 0.002,-1.824 -1.309,-2.736 -1.306,-4.562 1.873,-0.597 1.013,-1.72 1.015,-3.333 0.002,-1.65 1.2,-1.578 2.062,-2.279 0.9,-0.736 -0.035,-1.649 0.191,-2.631 0.226,-0.983 1.237,-1.438 1.5,-2.456 -0.412,-0.177 -0.937,-0.422 -0.937,-0.878 0.002,-0.947 0.676,-0.42 1.5,-0.701 1.425,-0.524 1.464,-2.981 3.377,-2.979 l 3.743,2.636 c 0.861,-0.104 1.611,0.002 2.061,0.003 0.975,0 0.978,-3.017 2.438,-3.331 l 5.166,85.437 c -0.002,1.58 -0.015,2.195 -0.016,3.002 0,0.631 0.937,0.949 0.936,1.932 -0.001,0.842 -0.002,1.475 -0.002,1.93 -0.001,0.316 -0.563,0.525 -0.563,1.053 0,0.842 0.562,1.404 0.56,2.281 -0.001,1.193 -1.5,1.578 -1.502,2.98 -0.002,1.93 1.722,1.758 2.807,2.635 0.711,0.562 0.373,1.229 0.936,1.758 0.974,0.912 2.883,2.107 3.181,3.16 0.373,1.404 -0.228,3.229 0.183,4.738 0.261,0.947 1.459,1.686 1.87,2.457 0.711,1.334 0.147,2.387 1.87,2.811 -0.75,0.912 -0.75,1.473 -1.126,2.98 -0.377,1.51 -2.252,2.945 -2.815,4.561 l -0.255,0.341 z"
       id="path68"
       inkscape:connector-curvature="0"
       style="fill:url(#SVGID_1_);stroke:#000000;stroke-width:3;stroke-miterlimit:3.86400008" /></g><path
     d="m 33.290001,101.552 c 0.405,-0.795 1.686,-0.646 2.512,-0.977 0,0 1.007,-0.736 1.323,-0.691 0.316,0.045 1.655,0.061 1.655,0.061 -0.122,0.586 0,1.277 -0.332,1.758 -0.21,0.287 -0.812,-1.066 -1.264,-0.359 -0.255,0.391 -1.353,2.24 -1.518,1.879 -0.166,-0.375 -0.211,-0.947 -0.572,-1.188 -0.494,-0.346 -2.074,0.045 -1.804,-0.483 z"
     id="path70"
     inkscape:connector-curvature="0"
     style="fill:#4f4f4f;stroke:#4d4d4d;stroke-width:0.0449" /><g
     id="g108"
     transform="translate(-163.565,-350.399)"><radialGradient
       id="SVGID_2_"
       cx="195.1714"
       cy="466.85449"
       r="92.091599"
       gradientTransform="matrix(1.0208,0,0,0.9741,-1.7363,4.1798)"
       gradientUnits="userSpaceOnUse"><stop
         offset="0"
         style="stop-color:#FFFFFF"
         id="stop111" /><stop
         offset="1"
         style="stop-color:#000000"
         id="stop113" /></radialGradient><path
       d="m 188.78,436.242 c -1.183,-0.791 -2.486,0.922 -3.653,1.713 -1.136,0.764 -2.241,1.672 -3.224,2.609 -1.06,1.025 -1.965,2.211 -2.964,3.311 0,0 -2.023,2.678 -1.547,3.85 -0.046,1.26 -1.152,3.203 -0.968,4.244 0.23,1.334 1.447,0.756 1.354,2.031 1.271,1.588 0.187,5.635 -2.545,8.062 -0.23,1.172 -1.792,3.326 0.895,6.924 0.659,0.541 0.801,5.484 -2.288,11.713 -0.955,1.281 -3.033,2.574 -3.033,2.574 -0.308,0.365 -1.159,1.787 -0.898,2.359 -0.645,1.064 0.684,5.59 2.777,7.787 3.479,0.186 9.761,0.168 11.849,0.184 2.962,0.043 6.831,-0.008 10.561,0.104 0,0 17.604,0.414 19.131,0.314 -0.066,-1.822 4.651,-2.014 4.651,-2.014 0.527,-1.109 -0.302,-3.42 4.333,-3.025 1.564,-1.277 1.848,-1.938 2.772,-2.484 1.541,-0.91 3.263,-0.568 4.723,-0.893 -0.399,-0.775 -0.691,-1.77 -1.32,-2.371 -0.966,-2.24 -1.688,-3.529 -4.513,-4.336 -1.213,-0.557 -2.089,-1.143 -2.426,-2.256 -0.339,-0.424 -0.69,-1.246 -0.798,-1.773 -0.217,-1.244 0.413,-2.973 -0.568,-3.777 -0.784,-0.66 -0.153,1.316 -1.152,1.58 -0.675,0.178 -0.952,-0.219 -1.488,-0.643 -0.859,-0.66 -1.521,-2.125 -2.35,-2.814 -1.458,-1.273 -3.086,-1.857 -4.56,-3.104 -0.705,-1.611 -2.517,-1.158 -2.917,-1.832 -0.568,-0.967 0.508,-2.666 -0.229,-3.5 -1.229,-1.408 -1.274,-0.996 -2.211,-2.564 -0.705,-1.158 -1.028,-2.592 -1.121,-3.955 -0.045,-0.791 -1.657,-1.068 -1.657,-1.875 0,-0.807 0.185,-1.244 0.261,-2.035 0.077,-0.895 0.538,-1.979 0.66,-2.857 0.123,-0.924 1.457,-2.564 1.49,-3.471 0.045,-0.543 -1.858,-0.045 -1.858,-0.588 0,-0.541 1.32,-1.156 1.412,-1.684 0.122,-3.779 -1.06,-0.498 -1.29,-0.924 -0.138,-0.424 0.186,-1.258 0.062,-1.684 -0.2,-0.689 -0.415,-1.699 -1.045,-1.377 -1.934,1.771 -3.377,3.166 -5.442,5.131 -2.81,1.684 -5.319,3.98 -8.466,4.947 -0.461,0.162 -1.72,-0.146 -1.72,-0.629 0,-1.289 0.046,-3.854 0.308,-5.084 0.152,-0.702 0.905,-5.595 1.012,-5.888 z"
       id="path115"
       inkscape:connector-curvature="0"
       style="fill:url(#SVGID_2_)" /><path
       d="m 187.338,437.787 c -0.245,-0.264 -0.752,0.279 -1.074,0.469 -0.6,0.338 -2.026,0.588 -1.735,1.188 0.307,0.615 1.383,-0.66 2.058,-0.557 0.338,0.043 0.614,0.762 0.338,0.951 -1.029,1.084 -3.346,1.057 -3.96,1.744 -0.215,1.098 2.456,-0.059 3.546,0.307 0.261,0.074 0,0.674 -0.246,0.791 -1.934,0.938 -4.468,0.924 -6.094,2.301 -0.769,0.629 2.439,-0.527 3.038,0.234 0.738,0.953 -0.752,2.666 0,3.633 0.584,0.719 0.153,-1.977 0.738,-2.695 0.291,-0.336 0.137,0.924 0.428,1.26 0.264,0.322 1.337,0.205 1.152,0.557 -0.444,0.924 -3.331,1.451 -2.471,2.051 1.151,0.805 2.839,-0.85 4.282,-0.775 0.446,0 -1.366,0.674 -0.997,0.936 0.722,0.484 3.361,-0.307 2.641,0.162 -1.229,0.82 -5.926,0.732 -4.453,1.025 2.948,0.586 6.064,-0.338 9.073,-0.088 0.293,0.029 0.016,0.762 -0.245,0.879 -2.364,0.938 -9.871,2.021 -7.338,2.213 3.192,0.232 6.339,-1.143 9.395,-2.053 1.78,-0.541 3.577,-1.289 5.111,-2.299 1.199,-0.775 4.453,-2.695 3.056,-3.004 -2.793,-0.6 -7.384,4.367 -8.412,1.832 -1.06,-2.695 4.559,-3.795 6.831,-5.699 0,0 -12.189,5.377 -12.927,5.377 -0.735,0 -3.546,0 -3.546,0 0.169,-0.703 0.538,-1.406 0.568,-2.139 0.03,-0.658 -0.368,-1.318 -0.321,-1.963 0.061,-0.807 0.49,-1.596 0.736,-2.373 0.291,-0.894 1.58,-3.386 0.828,-4.265 z"
       id="path117"
       inkscape:connector-curvature="0"
       style="fill:#8c8c8c" /><path
       d="m 177.868,450.195 c -0.14,-0.234 0.199,-0.557 0.291,-0.82 0.122,-0.322 0.062,-1.084 0.414,-1.012 0.829,0.162 1.32,1.041 1.996,1.555 0,0 2.195,2.168 2.687,2.445 0.492,0.277 1.995,0.482 2.349,0.482 0.353,0 4.237,-0.482 4.237,-0.482 -1.443,0.453 -4.928,0.072 -4.391,1.436 0.599,1.539 3.455,0.631 5.189,0.541 1.396,-0.072 2.747,-0.746 4.099,-1.084 0,0 5.91,-2.475 6.524,-2.52 0.613,-0.043 0.706,1.979 0.706,2.463 0,0.467 -0.491,1.42 -0.491,1.42 -0.215,0.469 -0.185,1.699 -0.646,1.422 -0.675,-0.439 0.123,-2.418 -0.705,-2.316 -0.999,0.104 -1.029,1.699 -1.412,2.58 -0.231,0.586 -0.017,1.434 -0.508,1.83 -0.306,0.277 -0.997,-0.629 -1.259,-0.322 -1.044,1.113 -0.798,4.85 -2.135,4.072 -1.38,-0.82 0.938,-2.988 1.429,-4.482 0,0 -0.292,-1.494 -0.368,-1.025 1.028,2.592 -12.711,16.334 -13.679,14.473 2.564,-2.988 5.143,-5.992 7.737,-8.965 1.812,-2.078 3.962,-3.984 5.512,-6.256 0.276,-0.408 0.246,-1.596 -0.216,-1.42 -1.15,0.455 -1.795,1.715 -2.686,2.578 0,0 -2.165,2.74 -2.488,3.457 -0.321,0.732 -2.978,3.766 -3.683,4.291 -0.691,0.527 -2.55,2.857 -2.964,3.252 -0.43,0.412 -3.132,2.389 -3.132,2.389 -1.213,-0.439 -3.023,-0.922 -3.822,-1.977 -0.768,-1.012 -0.722,-3.355 -0.354,-4.482 0.138,-0.439 0.691,-0.719 0.998,-1.084 0.415,-0.527 0.952,-1.041 1.259,-1.627 0.245,-0.498 0.292,-1.113 0.43,-1.641 0,0 -0.552,0.072 0.293,-0.674 0.843,-0.762 1.196,-1.436 1.196,-1.436 0.062,-0.527 0.246,-1.1 0.216,-1.627 -0.016,-0.643 -0.309,-1.289 -0.431,-1.904 -0.077,-0.496 0.046,-1.084 -0.199,-1.492 -0.489,-0.792 -1.503,-1.262 -1.993,-2.038 z"
       id="path119"
       inkscape:connector-curvature="0"
       style="fill:#8c8c8c" /><path
       d="m 203.105,455.088 c 0,-1.01 -0.891,-1.332 -1.197,-0.264 -0.199,0.645 0.092,1.393 -0.153,2.035 -0.123,0.295 -0.922,0.207 -0.922,0.543 0,0.293 1.167,-0.029 0.922,0.133 -0.583,0.424 -1.688,0.16 -2.118,0.746 -0.262,0.367 1.734,-0.102 1.412,0.205 -0.63,0.572 -1.767,0.41 -2.549,0.805 -0.292,0.162 -0.891,0.748 -0.567,0.895 0.905,0.426 2.088,0.6 3.054,0.338 0.461,-0.133 0.308,-0.91 0.431,-1.348 0.046,-0.207 0.154,-0.439 0.199,-0.615 0,0 0.646,-0.484 0.646,-0.148 0,0.352 0.567,0.615 0.567,0.615 0.261,-0.307 1.089,-1.332 0.707,-1.699 -0.23,-0.219 -0.538,0.5 -0.861,0.484 -0.26,-0.016 -0.49,-0.352 -0.49,-0.615 0,-0.277 0.399,-0.453 0.49,-0.689 0.184,-0.454 0.429,-0.939 0.429,-1.421 z"
       id="path121"
       inkscape:connector-curvature="0"
       style="fill:#8c8c8c" /><path
       d="m 178.358,473.018 c 0.322,-0.805 0.952,-1.641 1.781,-2.035 0.384,-0.176 0.797,0.482 1.213,0.615 0.583,0.174 1.243,0.248 1.843,0.336 0,0 4.235,-2.842 4.804,-2.988 0.583,-0.131 7.737,-4 7.737,-4 -1.55,1.217 -3.07,2.578 -4.682,3.721 -1.766,1.291 -3.639,2.521 -5.527,3.619 -2.456,1.422 -4.729,3.721 -7.582,4 -1.137,0.116 0.03,-2.257 0.413,-3.268 z"
       id="path123"
       inkscape:connector-curvature="0"
       style="fill:#8c8c8c" /><linearGradient
       id="SVGID_3_"
       gradientUnits="userSpaceOnUse"
       x1="174.90581"
       y1="472.83401"
       x2="204.5181"
       y2="472.83401"><stop
         offset="0"
         style="stop-color:#FFFFFF"
         id="stop126" /><stop
         offset="1"
         style="stop-color:#000000"
         id="stop128" /></linearGradient><path
       d="m 176.301,478.73 c 0.691,-0.703 1.336,-1.582 2.271,-1.977 0.967,-0.396 2.149,-0.236 3.209,-0.336 0,0 3.254,-3.062 3.96,-3.195 0.707,-0.131 4.038,-2.168 4.038,-2.168 1.136,-0.82 2.272,-1.656 3.408,-2.447 1.29,-0.908 2.778,-1.668 3.96,-2.723 2.304,-1.992 4.36,-4.293 6.525,-6.447 0,0 -0.568,1.627 -0.783,2.373 -0.216,0.748 1.628,-1.566 1.628,-1.566 -3.47,4.746 -6.924,9.58 -10.486,14.283 -2.563,3.367 -4.729,7.148 -7.937,9.975 -1.581,1.422 2.195,-3.633 2.978,-5.566 0.108,-0.25 -0.261,-0.982 -0.429,-0.746 -1.966,2.504 -3.378,5.434 -5.235,8.012 -0.092,0.133 -0.338,-0.219 -0.291,-0.336 1.196,-2.549 3.807,-4.746 3.96,-7.545 0.093,-1.303 -2.64,1.041 -3.607,1.979 -0.86,0.85 -0.813,2.359 -1.688,3.191 -1.213,1.131 -2.764,2.154 -4.406,2.52 -0.521,0.105 -0.216,-1.111 0,-1.566 0.292,-0.66 1.935,-1.07 1.488,-1.625 -0.782,-1.012 -2.7,-0.514 -3.761,-1.23 -0.751,-0.516 0.86,-2.508 1.198,-2.86 z"
       id="path130"
       inkscape:connector-curvature="0"
       style="fill:url(#SVGID_3_)" /><path
       d="m 205.439,463.1 c -1.505,1.701 -3.024,3.414 -4.529,5.1 0,0 -2.625,3.676 -2.978,4.291 -0.354,0.602 -4.468,5.23 -4.468,5.23 -0.538,1.025 -2.824,3.281 -1.628,3.119 1.766,-0.219 2.226,-3.076 3.977,-3.471 0.829,-0.191 0.399,1.758 0.062,2.52 -0.736,1.713 -3.777,2.885 -3.255,4.688 0.446,1.553 2.84,-1.992 3.623,-3.398 0.69,-1.289 0.415,-2.9 0.614,-4.336 0,0 1.566,-4.498 2.641,-5.303 1.059,-0.821 5.941,-8.44 5.941,-8.44 z"
       id="path132"
       inkscape:connector-curvature="0"
       style="fill:#8c8c8c" /><path
       d="m 209.982,474.996 c 0.124,-0.322 1.919,-2.988 1.919,-2.988 0.769,-0.617 1.551,-1.232 2.335,-1.832 0,0 -0.154,0.279 0.705,1.496 0.845,1.213 1.858,1.961 1.858,1.961 0.461,0.293 1.918,0.689 1.412,0.895 -1.213,0.469 -2.672,0.014 -3.976,0.131 -0.799,0.059 -1.658,0.82 -2.335,0.469 -0.49,-0.234 0,-1.084 0,-1.625 0,0 -0.629,1.289 -0.998,1.699 -0.352,0.394 -0.92,-0.206 -0.92,-0.206 z"
       id="path134"
       inkscape:connector-curvature="0"
       style="fill:#737373" /><path
       d="m 176.024,489.395 c 0,-1.201 1.704,-1.816 2.549,-2.709 0,0 1.935,-1.393 2.272,-1.641 0.338,-0.234 -0.2,1.904 -0.2,1.904 -0.705,0.85 -1.105,2.006 -2.072,2.518 -0.722,0.383 -2.549,0.734 -2.549,-0.072 z"
       id="path136"
       inkscape:connector-curvature="0"
       style="fill:#8c8c8c" /><path
       d="m 180,490.758 c -0.291,-1.449 2.487,-6.725 2.487,-6.725 0.122,1.48 0.152,3.018 0.216,4.482 0,0 2.87,-4.746 2.823,-4.424 -0.046,0.322 -0.645,4.557 -0.645,4.557 0,0 6.54,-8.277 5.542,-6.035 -0.997,2.24 -6.801,10.459 -6.801,10.459 -1.626,-0.029 -3.544,-0.644 -3.622,-2.314 z"
       id="path138"
       inkscape:connector-curvature="0"
       style="fill:#8c8c8c" /><path
       d="m 177.858,465.771 c -0.292,-1.449 2.488,-6.723 2.488,-6.723 0.122,1.479 0.152,3.018 0.214,4.482 0,0 3.875,-5.049 3.829,-4.727 -0.047,0.322 -1.649,4.857 -1.649,4.857 0,0 8.409,-9.135 7.412,-6.895 -0.998,2.242 -8.671,11.318 -8.671,11.318 -1.627,-0.024 -3.547,-0.64 -3.623,-2.312 z"
       id="path140"
       inkscape:connector-curvature="0"
       style="fill:#454545" /><path
       d="m 211.256,486.201 c 0,0 0.491,-0.746 1.136,-0.746 0.645,0 2.779,-0.279 4.191,-0.469 1.398,-0.191 1.704,-0.484 3.394,-0.689 1.704,-0.205 3.346,0.133 4.759,-0.879 1.396,-0.996 1.551,-1.494 1.551,-1.494 0.046,0.381 0.414,0.879 0.214,1.217 -0.444,0.791 -1.166,1.596 -2.057,1.904 -1.565,0.57 -3.394,0.322 -5.035,0.688 -0.522,0.119 -0.922,0.615 -1.413,0.807 -1.458,0.557 -2.917,1.566 -4.468,1.508 -0.996,-0.046 -1.518,-1.232 -2.272,-1.847 z"
       id="path142"
       inkscape:connector-curvature="0"
       style="fill:#4d4d4d" /><path
       d="m 220.621,474.863 c -1.228,-0.043 -1.812,1.686 -2.701,2.506 0,0 -3.271,1.641 -3.47,1.977 -0.2,0.322 -3.839,2.711 -3.839,2.711 0,0 -1.842,1.303 -2.608,1.699 -0.783,0.395 -3.193,2.725 -3.193,2.725 -0.936,0.57 -1.935,1.201 -2.901,1.758 -0.905,0.512 -3.839,1.494 -2.779,1.494 1.429,0 2.794,-0.777 3.977,-1.494 1.504,-0.879 2.656,-2.285 4.038,-3.326 0.89,-0.66 1.903,-1.229 2.839,-1.83 0,0 3.409,-1.773 4.177,-2.109 0.782,-0.338 4.328,-2.387 4.328,-2.387 0.568,-0.396 1.076,-1.48 1.704,-1.217 0.568,0.219 -0.936,1.068 -0.782,1.625 0.107,0.381 0.859,-0.248 1.137,-0.527 0.244,-0.234 0.429,-0.629 0.429,-0.951 -0.003,-0.896 0.565,-2.64 -0.356,-2.654 z"
       id="path144"
       inkscape:connector-curvature="0"
       style="fill:#737373" /><path
       d="m 200.127,487.152 c 0,0 4.358,-3.205 4.682,-3.529 0.321,-0.322 2.287,-2.197 3.116,-2.578 0.83,-0.381 4.114,-1.729 4.529,-2.051 0.414,-0.32 1.781,-1.961 2.21,-2.24 0.414,-0.264 2.764,-1.422 2.764,-1.422 -0.629,0.615 -1.167,1.348 -1.842,1.832 -1.644,1.156 -3.501,2.064 -5.189,3.135 -0.69,0.439 -1.367,0.967 -2.042,1.42 0,0 -1.565,1.494 -1.919,1.832 -0.337,0.338 -3.762,2.783 -3.762,2.783 -0.828,0.264 -1.718,0.555 -2.547,0.818 z"
       id="path146"
       inkscape:connector-curvature="0"
       style="fill:#737373" /><path
       d="m 179.893,480.113 c 0,0 4.36,-3.209 4.683,-3.531 0.323,-0.322 2.288,-2.197 3.117,-2.578 0.828,-0.381 4.113,-1.729 4.529,-2.051 0.413,-0.322 1.779,-1.963 2.21,-2.24 0.415,-0.264 2.763,-1.422 2.763,-1.422 -0.629,0.615 -1.166,1.348 -1.842,1.832 -1.643,1.156 -3.5,2.064 -5.188,3.135 -0.691,0.438 -1.366,0.965 -2.042,1.42 0,0 -1.566,1.494 -1.919,1.832 -0.338,0.336 -3.761,2.783 -3.761,2.783 -0.829,0.264 -1.72,0.555 -2.55,0.82 z"
       id="path148"
       inkscape:connector-curvature="0"
       style="fill:#8c8c8c" /><path
       d="m 181.382,455.029 c 0,0 1.52,0.074 2.043,0.117 0.521,0.059 2.456,0.482 2.456,0.482 -0.446,0.338 -0.892,0.689 -1.32,1.025 0,0 -2.058,0.631 -2.227,1.012 -0.153,0.396 -1.306,0.352 -1.429,0.951 0.293,0.704 1.045,-3.512 0.477,-3.587 z"
       id="path150"
       inkscape:connector-curvature="0"
       style="fill:#4f4f4f;stroke:#4d4d4d;stroke-width:0.0448" /></g><g
     id="g152"
     transform="translate(-163.565,-350.399)"><path
       stroke-miterlimit="3.864"
       d="m 233.412,485.811 c -0.018,0.094 -0.044,1.432 -0.905,1.432 -0.974,-0.002 -1.011,-1.336 -2.248,-1.336 -1.459,-0.002 -3.784,0.732 -4.87,1.328 -0.601,0.314 -1.502,1.822 -1.95,1.822 -0.263,0 -1.088,-0.002 -1.611,-0.002 -1.91,-0.002 -2.624,1.225 -2.626,3.084 -1.686,0.385 -4.498,0.52 -4.5,2.203 L 168.92,493.49 c -1.348,-1.932 -3.856,-3.164 -3.854,-6.322 0.002,-1.754 0.94,-2.455 1.24,-3.857 0.076,-0.492 0.039,-0.949 0.451,-1.229 0.862,-0.596 1.725,-0.875 2.251,-1.857 0.525,-0.982 10e-4,-1.615 0.002,-2.877 0.002,-1.229 0.752,-1.578 0.753,-3.088 0.001,-1.088 -0.372,-2.035 -0.371,-3.053 0.002,-1.475 0.754,-4 1.316,-5.264 0.188,-0.42 0.938,-1.297 0.938,-1.93 0.001,-0.42 -0.374,-0.631 -0.373,-1.053 0,-0.455 0.301,-0.771 0.302,-1.227 0,-0.598 -0.675,-0.457 -0.674,-1.16 0.002,-1.754 1.052,-3.016 1.055,-4.98 0.001,-0.947 -0.562,-1.195 -0.561,-2.283 10e-4,-0.947 0.49,-2.771 1.203,-3.262 0.45,-0.314 1.05,-0.49 1.312,-1.121 0.338,-0.842 -0.186,-1.51 0.189,-2.211 0.375,-0.176 1.051,-0.35 1.125,-0.596 0.263,-0.807 -0.073,-1.369 0.376,-1.93 0.487,-0.631 1.913,-1.297 2.363,-2.033 0.601,-0.945 1.164,-1.787 1.876,-2.629 l 0.002,-2.879 c 0.603,-1.473 2.14,-1.998 2.516,-3.26 0.15,-0.49 -0.15,-0.809 0.002,-1.299 0.225,-0.631 0.86,-0.561 1.051,-1.332 -0.15,-0.07 -0.675,-0.422 -0.675,-0.703 0,-0.279 0.375,-0.35 0.488,-0.596 10e-4,-1.438 0.526,-2.105 1.202,-3.158 0.3,-0.49 1.312,-0.699 1.312,-1.576 0.001,-0.666 -0.448,-1.02 -0.448,-1.686 0,-0.316 0,-0.598 0.001,-1.123 0.001,-0.983 -0.672,-1.474 -0.672,-2.456 0.001,-0.492 0.301,-0.878 0.302,-1.51 0.002,-0.562 -0.372,-0.913 -0.372,-1.474 0.003,-2.949 3.752,-5.015 6.824,-5.012 0.599,0.002 1.235,0.282 1.985,0.283 1.199,10e-4 1.164,-1.578 1.765,-2.455 0.825,-1.191 2.248,-0.629 3.673,-1.398 1.573,-0.877 1.611,-2.245 2.812,-3.086 0.713,-0.492 1.575,-0.664 1.576,-1.928 l 0.002,-1.229 c 0.639,-1.229 2.251,-2.912 2.252,-4.033 0.002,-0.773 -1.011,-1.02 -1.122,-1.756 -0.334,-1.931 -1.945,-2.459 -1.942,-4.985 0.001,-0.702 0.525,-1.087 0.639,-1.754 0.339,-1.896 1.089,-2.665 1.802,-4.034 0.264,-0.527 -0.111,-1.018 0.189,-1.508 0.15,-0.246 1.126,-1.018 1.126,-1.475 0.002,-1.824 -1.309,-2.736 -1.306,-4.562 1.873,-0.597 1.013,-1.72 1.015,-3.333 0.002,-1.65 1.2,-1.578 2.062,-2.279 0.9,-0.736 -0.035,-1.649 0.191,-2.631 0.226,-0.983 1.237,-1.438 1.5,-2.456 -0.412,-0.177 -0.937,-0.422 -0.937,-0.878 0.002,-0.947 0.676,-0.42 1.5,-0.701 1.425,-0.524 1.464,-2.981 3.377,-2.979 l 3.743,2.636 c 0.861,-0.104 1.611,0.002 2.061,0.003 0.975,0 0.978,-3.017 2.438,-3.331 l 5.166,85.437 c -0.002,1.58 -0.015,2.195 -0.016,3.002 0,0.631 0.937,0.949 0.936,1.932 -0.001,0.842 -0.002,1.475 -0.002,1.93 -0.001,0.316 -0.563,0.525 -0.563,1.053 0,0.842 0.562,1.404 0.56,2.281 -0.001,1.193 -1.5,1.578 -1.502,2.98 -0.002,1.93 1.722,1.758 2.807,2.635 0.711,0.562 0.373,1.229 0.936,1.758 0.974,0.912 2.883,2.107 3.181,3.16 0.373,1.404 -0.228,3.229 0.183,4.738 0.261,0.947 1.459,1.686 1.87,2.457 0.711,1.334 0.147,2.387 1.87,2.811 -0.75,0.912 -0.75,1.473 -1.126,2.98 -0.377,1.51 -1.926,2.668 -2.488,4.283 l -0.173,0.779 z"
       id="path154"
       inkscape:connector-curvature="0"
       style="fill:none;stroke:#ffffff;stroke-width:1.03499997;stroke-miterlimit:3.86400008" /></g><g
     id="g156"
     transform="translate(-163.565,-350.399)"><path
       d="m 203.05,452.209 c -0.194,-1.023 0.181,-2.121 0.211,-3.189 0.016,-0.768 0.016,-1.67 0.436,-2.332 0.438,-0.646 1.324,-0.916 1.955,-1.383 1.444,-1.037 2.828,-2.359 4.709,-2.541 3.263,-0.285 7.008,-0.121 10.195,0.512 2.241,0.525 4.707,4.721 4.346,4.557 0.347,0.916 0.933,1.549 1.144,2.137 0.211,0.57 0.211,1.879 0.211,2.539 0,0.648 -0.136,2.467 -0.211,2.904 -0.061,0.42 -1.158,4.285 -1.158,4.285 -0.948,0.873 -1.94,1.775 -2.902,2.678 0,0 -0.496,0 -0.707,1.021 -0.21,1.008 -0.662,1.744 -0.812,2.467 -0.15,0.721 -9.399,-1.443 -9.399,-1.443 -2.09,-2.557 -4.557,-4.857 -6.286,-7.641 -0.828,-1.339 -1.445,-3.038 -1.732,-4.571 z"
       id="path158"
       inkscape:connector-curvature="0"
       style="fill:#fcfcfc" /><path
       d="m 208.253,464.314 c -0.676,-1.248 -0.014,-2.287 -0.044,-3.49 0,0 1.806,0.121 2.451,0.121 2.151,0 3.067,-0.105 5.188,-0.15 1.112,1.232 2.662,1.67 4.255,1.67 1.054,0 0.904,0.467 1.068,1.383 0,0 -0.933,1.564 -0.933,2.211 -1.067,0.902 -0.21,3.113 -0.21,4.271 0,0.646 0,2.195 0,2.195 -0.571,0.029 -1.278,0.48 -1.775,0.15 -0.962,-0.646 -1.368,-1.895 -2.104,-2.752 -1.849,-2.091 -7.008,-4.091 -7.896,-5.609 z"
       id="path160"
       inkscape:connector-curvature="0"
       style="fill:#f5f5f5" /><g
       id="g162"><path
         d="m 208.435,464.375 c -0.646,-1.205 0,-2.211 -0.029,-3.369 0,0 1.744,0.105 2.375,0.105 2.075,0 2.963,-0.09 5.023,-0.135 1.067,1.188 2.586,1.609 4.136,1.609 1.008,0 0.872,0.449 1.021,1.336 0,0 -0.887,1.52 -0.887,2.152 -1.038,0.887 -0.211,3.006 -0.211,4.15 0,0.617 0,2.119 0,2.119 -0.571,0.016 -1.247,0.467 -1.729,0.137 -0.933,-0.617 -1.324,-1.836 -2.046,-2.662 -1.788,-2.03 -6.796,-3.969 -7.653,-5.442 z"
         id="path164"
         inkscape:connector-curvature="0"
         style="fill:#e5e5e5" /><path
         d="m 208.63,464.465 c -0.631,-1.188 -0.015,-2.15 -0.045,-3.279 0,0 1.7,0.121 2.301,0.121 2.016,0 2.872,-0.121 4.888,-0.15 1.023,1.158 2.497,1.564 3.984,1.564 0.993,0 0.857,0.436 0.993,1.293 0,0 -0.857,1.473 -0.857,2.09 -1.007,0.857 -0.195,2.918 -0.195,4 0,0.617 0,2.061 0,2.061 -0.557,0.031 -1.218,0.451 -1.685,0.15 -0.887,-0.602 -1.277,-1.775 -1.969,-2.588 -1.745,-1.954 -6.587,-3.834 -7.415,-5.262 z"
         id="path166"
         inkscape:connector-curvature="0"
         style="fill:#d5d5d5" /><path
         d="m 208.811,464.539 c -0.617,-1.143 -0.016,-2.09 -0.046,-3.172 0,0 1.64,0.105 2.242,0.105 1.939,0 2.767,-0.092 4.723,-0.137 0.977,1.113 2.42,1.52 3.863,1.52 0.947,0 0.812,0.422 0.963,1.248 0,0 -0.857,1.428 -0.857,2.031 -0.963,0.811 -0.181,2.811 -0.181,3.879 0,0.586 0,1.984 0,1.984 -0.525,0.031 -1.173,0.436 -1.623,0.15 -0.857,-0.602 -1.233,-1.729 -1.911,-2.512 -1.669,-1.906 -6.376,-3.711 -7.173,-5.096 z"
         id="path168"
         inkscape:connector-curvature="0"
         style="fill:#c5c5c5" /><path
         d="m 208.992,464.615 c -0.586,-1.1 -0.015,-2 -0.03,-3.068 0,0 1.579,0.121 2.151,0.121 1.879,0 2.69,-0.121 4.57,-0.15 0.948,1.098 2.331,1.475 3.729,1.475 0.934,0 0.798,0.404 0.934,1.217 0,0 -0.812,1.369 -0.812,1.955 -0.935,0.781 -0.182,2.723 -0.182,3.744 0,0.57 0,1.926 0,1.926 -0.511,0.029 -1.128,0.42 -1.563,0.135 -0.843,-0.57 -1.203,-1.654 -1.85,-2.436 -1.624,-1.821 -6.166,-3.581 -6.947,-4.919 z"
         id="path170"
         inkscape:connector-curvature="0"
         style="fill:#b4b4b4" /></g><path
       d="m 209.188,464.705 c -0.572,-1.068 -0.017,-1.939 -0.047,-2.963 0,0 1.534,0.105 2.091,0.105 1.82,0 2.587,-0.09 4.392,-0.137 0.947,1.055 2.271,1.43 3.624,1.43 0.887,0 0.768,0.391 0.887,1.158 0,0 -0.781,1.338 -0.781,1.896 -0.902,0.766 -0.181,2.631 -0.181,3.623 0,0.541 0,1.85 0,1.85 -0.495,0.031 -1.082,0.406 -1.504,0.135 -0.812,-0.541 -1.158,-1.609 -1.789,-2.33 -1.565,-1.775 -5.957,-3.474 -6.692,-4.767 z"
       id="path172"
       inkscape:connector-curvature="0"
       style="fill:#8c8c8c" /><path
       d="m 204.96,440.99 c 0.406,-0.061 0.572,-0.633 0.948,-0.812 1.247,-0.646 2.406,-1.264 3.744,-1.701 1.022,-0.33 2.105,-0.465 3.174,-0.689 0,0 3.127,-0.107 3.805,0.059 0.691,0.18 2.751,0.377 2.751,0.377 1.174,0.826 2.422,1.639 3.249,2.826 0.301,0.438 0.992,1.504 1.248,1.941 0.241,0.42 0.857,1.127 1.188,1.578 0.316,0.436 0.603,2 0.738,2.436 0.135,0.436 0.391,1.564 0.391,1.941 0,0 0.074,3.217 -0.015,3.021 -0.24,-0.465 -0.497,-1.068 -0.616,-1.578 -0.423,-1.654 -0.857,-2.422 -1.745,-3.82 0,0 -1.459,-0.467 -1.88,-0.691 -1.233,-0.691 -2.271,-2.15 -3.669,-2.512 -1.474,-0.391 -3.099,-0.602 -4.633,-0.617 -0.902,-0.029 -1.685,0 -2.571,0.135 -0.902,0.152 -1.76,0.812 -2.632,1.068 -0.963,1.129 -1.971,1.43 -2.902,2.242 0,0 -0.301,0.375 -0.812,0.811 -0.495,0.436 -0.256,0.512 -0.752,0.812 -0.495,0.301 -1.054,0.377 -1.054,0.377 0,-2.527 0.077,-5.068 0.061,-7.58 0.677,0.134 1.338,0.466 1.984,0.376 z"
       id="path174"
       inkscape:connector-curvature="0"
       style="fill:#f5f5f5;stroke:#ececec;stroke-width:0.1201" /><path
       d="m 203.578,442.6 c 2.331,-2.572 5.85,-4.754 9.309,-4.709 1.686,0 2.467,3.641 1.354,4.873 -4.933,-0.963 -8.076,3.232 -10.753,5.564 -1.895,-0.016 -1.158,-4.316 0.09,-5.728 z"
       id="path176"
       inkscape:connector-curvature="0"
       style="fill:#f5f5f5" /><g
       id="g178"><path
         d="m 203.578,442.764 c 2.361,-2.482 5.113,-4.211 8.48,-4.451 1.686,0.014 2.408,3.309 1.294,4.541 -4.872,-0.557 -7.324,3.279 -9.865,5.475 -1.894,-0.03 -1.157,-4.167 0.091,-5.565 z"
         id="path180"
         inkscape:connector-curvature="0"
         style="fill:#eaeaea" /><path
         d="m 203.578,442.93 c 2.406,-2.377 4.392,-3.656 7.654,-4.166 1.685,0.016 2.361,2.932 1.232,4.182 -4.797,-0.137 -6.586,3.352 -8.978,5.383 -1.893,-0.03 -1.156,-3.985 0.092,-5.399 z"
         id="path182"
         inkscape:connector-curvature="0"
         style="fill:#dedede" /><path
         d="m 203.578,443.094 c 2.437,-2.285 3.67,-3.098 6.827,-3.895 1.684,0.016 2.301,2.602 1.173,3.85 -4.737,0.271 -5.835,3.398 -8.091,5.279 -1.894,-0.029 -1.157,-3.82 0.091,-5.234 z"
         id="path184"
         inkscape:connector-curvature="0"
         style="fill:#d3d3d3" /><path
         d="m 203.578,443.26 c 2.48,-2.18 2.948,-2.541 6,-3.609 1.685,0 2.227,2.242 1.113,3.475 -4.677,0.707 -5.083,3.488 -7.204,5.203 -1.894,-0.03 -1.157,-3.655 0.091,-5.069 z"
         id="path186"
         inkscape:connector-curvature="0"
         style="fill:#c7c7c7" /><path
         d="m 203.578,443.426 c 2.511,-2.076 2.211,-1.971 5.174,-3.34 1.684,0.016 2.165,1.896 1.037,3.145 -4.602,1.127 -4.332,3.549 -6.302,5.098 -1.894,-0.03 -1.157,-3.489 0.091,-4.903 z"
         id="path188"
         inkscape:connector-curvature="0"
         style="fill:#bcbcbc" /><path
         d="m 203.578,443.605 c 2.556,-1.984 1.488,-1.443 4.347,-3.068 1.684,0.016 2.12,1.535 0.992,2.783 -4.542,1.533 -3.595,3.623 -5.43,5.008 -1.894,-0.029 -1.157,-3.308 0.091,-4.723 z"
         id="path190"
         inkscape:connector-curvature="0"
         style="fill:#b0b0b0" /></g><path
       d="m 203.578,443.787 c 2.586,-1.91 0.767,-0.857 3.519,-2.797 1.686,0.014 2.045,1.203 0.934,2.436 -4.482,1.984 -2.858,3.639 -4.543,4.902 -1.895,-0.016 -1.158,-3.142 0.09,-4.541 z"
       id="path192"
       inkscape:connector-curvature="0"
       style="fill:#8c8c8c" /><path
       d="m 205.006,452.9 c 0.616,-0.332 3.985,-1.398 4.692,-1.533 0,0 1.954,1.066 3.474,4.615 3.789,2.752 -0.797,6.422 -5.173,4.137 -0.542,-0.211 -2.617,-3.309 -3.144,-3.49 0.001,0 -0.12,-3.578 0.151,-3.729 z"
       id="path194"
       inkscape:connector-curvature="0"
       style="fill:#f5f5f5" /><polygon
       points="209.637,438.521 209.534,421.032 213.579,437.846 "
       id="polygon196"
       style="fill:#636466" /><polygon
       points="218.195,438.012 227.458,424.297 221.428,439.861 "
       id="polygon198"
       style="fill:#636466" /><polygon
       points="218.917,438.492 227.428,424.311 217.985,438.252 "
       id="polygon200"
       style="fill:#ffffff" /><polygon
       points="224.662,444.027 238.784,438.914 225.775,446.732 "
       id="polygon202"
       style="fill:#636466" /><polygon
       points="224.662,443.998 224.121,443.244 238.167,439.23 "
       id="polygon204"
       style="fill:#f5f5f5" /><polygon
       points="226.211,451.891 238.919,454.328 225.941,454.959 "
       id="polygon206"
       style="fill:#717274" /><polygon
       points="226.241,451.064 238.784,454.328 226.241,451.922 "
       id="polygon208"
       style="fill:#f5f5f5" /><polygon
       points="224.481,458.779 235.173,467.486 223.939,462.283 "
       id="polygon210"
       style="fill:#717274" /><path
       d="m 203.487,451.922 c 0.406,-0.602 1.233,-0.873 1.76,-1.383 0.376,-0.361 0.558,-0.963 0.978,-1.295 0.286,-0.238 1.128,0 1.128,-0.404 0,-0.451 -1.053,-0.301 -1.128,-0.723 -0.091,-0.451 0.496,-0.842 0.737,-1.219 0,0 0.722,-0.166 1.444,-0.166 0.735,0 3.879,-0.238 3.879,-0.238 1.098,-0.256 2.182,-0.691 3.31,-0.812 1.443,-0.137 2.917,-0.105 4.346,0 0.271,0.029 0.496,0.285 0.736,0.406 0.285,0.15 0.662,0.209 0.888,0.406 0.315,0.254 0.556,0.66 0.812,0.977 0.723,0.842 1.956,2.121 2.346,3.158 0.136,0.391 0.632,1.625 0.632,2.029 0,0.406 0.241,1.852 0.241,1.852 -0.256,1.053 -0.497,2.135 -0.798,3.172 -0.105,0.377 -0.33,0.752 -0.481,1.129 0,1.609 -0.089,3.262 -0.089,4.873 -0.182,1.143 -5.505,4.541 -0.963,-6.889 0.12,-0.406 0.542,-0.723 0.646,-1.145 0.406,-1.758 0.047,-3.203 -0.811,-4.781 -0.376,-0.707 -1.068,-1.277 -1.534,-1.939 -0.467,-0.646 -0.646,-1.699 -1.368,-2.031 -0.888,-0.391 -1.971,0.045 -2.918,0.076 -1.548,0.076 -3.174,-0.076 -4.678,0.33 -0.466,0.121 -0.512,0.842 -0.796,1.219 -0.302,0.375 -0.661,0.707 -0.978,1.053 -0.692,0.797 -1.444,1.85 -2.421,2.346 -0.572,0.301 -1.324,0.301 -1.941,0.572 -0.48,0.209 -0.842,0.826 -1.368,0.887 -0.603,0.059 -2.153,-0.679 -1.611,-1.46 z"
       id="path212"
       inkscape:connector-curvature="0"
       style="fill:#808080" /><path
       d="m 209.939,450.463 c 0,0 2.902,-1.293 3.309,-1.293 0.407,0 2.181,0.074 2.181,0.074 0.195,-0.135 0.391,-0.496 0.646,-0.48 0.377,0.016 0.662,0.377 0.963,0.572 0.36,0.24 0.841,0.436 1.067,0.797 0.166,0.301 0.256,0.781 0.075,1.066 -0.226,0.361 -0.812,0.361 -1.143,0.648 -0.211,0.195 -0.24,0.631 -0.481,0.811 -0.165,0.137 -0.511,0.182 -0.723,0.076 -0.239,-0.105 -0.316,-0.48 -0.48,-0.646 -0.558,-0.602 -0.903,-0.873 -1.79,-0.812 -0.405,0.029 -0.526,0.527 -0.241,0.812 0.151,0.135 0.769,0.256 0.572,0.24 -0.391,-0.031 -0.768,-0.285 -1.128,-0.316 -0.586,-0.045 -1.188,0 -1.775,0 0,0 -0.887,-1.789 -1.052,-1.549 z"
       id="path214"
       inkscape:connector-curvature="0"
       style="fill:#8c8c8c" /><path
       d="m 223.834,455.246 c -0.119,-0.406 -0.587,-0.723 -0.736,-1.145 -0.104,-0.346 0.075,-0.797 -0.091,-1.127 -0.331,-0.721 -2.211,-1.971 -2.978,-1.939 -0.346,0 0.135,0.691 0.166,1.053 0.03,0.359 0.03,0.766 0.074,1.127 0.046,0.346 0.196,0.707 0.24,1.053 0.062,0.316 -0.03,0.738 0.166,0.979 0.12,0.15 0.392,-0.105 0.571,-0.074 0.889,0.148 0.422,1.428 0.723,2.029 0.105,0.225 0.525,0.27 0.646,0.48 0.12,0.211 0.029,1.037 0.15,0.812 0.256,-0.422 0.496,-1.625 0.496,-1.625 0.408,-0.48 0.783,-0.871 0.573,-1.623 z"
       id="path216"
       inkscape:connector-curvature="0"
       style="fill:#8c8c8c" /><path
       d="m 216.481,455.742 c 0.24,-0.166 0.33,-0.557 0.557,-0.736 0.165,-0.121 0.436,-0.211 0.661,-0.258 0.646,-0.148 1.324,-0.389 2,-0.389 1.098,0 1.008,1.834 0.978,2.51 0,0.152 0.015,0.377 -0.074,0.482 -0.105,0.135 -0.422,0.029 -0.498,0.164 -0.059,0.137 0.166,0.918 0.166,1.129 0,0 0.181,0 0.24,0.406 0.062,0.285 -0.09,1.926 -0.812,1.473 -0.271,-0.18 -0.406,-0.525 -0.632,-0.734 -0.511,-0.482 -1.247,-0.422 -1.864,-0.738 -0.195,-0.105 -0.392,-0.285 -0.571,-0.406 -0.121,-0.076 -0.526,-0.227 -0.392,-0.24 0.798,-0.045 1.204,0.271 1.865,0.57 0.18,0.09 0.437,0.15 0.631,0.242 0.437,0.209 1.249,0.902 1.368,-0.076 0.106,-0.902 -0.841,-0.541 -1.368,-0.811 -0.18,-0.092 -0.18,-0.438 -0.315,-0.572 -0.481,-0.422 -1.985,-0.061 -2.511,0.09 -0.18,0.045 -0.362,0.24 -0.557,0.24 -0.151,0 -0.512,-0.137 -0.406,-0.24 0.226,-0.227 0.647,-0.227 0.963,-0.332 0,0 0.165,-0.24 0.646,-0.24 0.481,0 1.369,-0.27 1.789,-0.166 0.406,0.107 0.481,-0.24 0.481,-0.24 -0.24,-0.316 -0.392,-0.48 -0.722,-0.646 10e-4,-10e-4 -1.713,-0.453 -1.623,-0.482 z"
       id="path218"
       inkscape:connector-curvature="0"
       style="fill:#ababab" /><linearGradient
       id="SVGID_4_"
       gradientUnits="userSpaceOnUse"
       x1="223.4175"
       y1="474.62991"
       x2="218.1514"
       y2="464.4606"><stop
         offset="0"
         style="stop-color:#FFFFFF"
         id="stop221" /><stop
         offset="1"
         style="stop-color:#000000"
         id="stop223" /></linearGradient><path
       d="m 218.661,464.465 c -0.03,-0.438 1.128,-0.602 1.354,-0.949 0.149,-0.27 1.203,-1.383 1.443,-1.096 0.376,0.465 -0.24,0.766 -0.24,1.322 0,0.438 -1.022,2.438 -1.022,3.023 0,0.602 -0.092,0.768 -0.092,1.459 0,1.262 -0.164,1.984 -0.164,3.248 0,0.436 -0.361,1.158 -0.361,1.021 -0.691,-0.045 -0.376,0.242 -1.037,0.076 -0.512,-0.137 -1.309,-1.264 -1.414,-1.686 -0.15,-0.676 -0.888,-2.586 -0.571,-3.262 0.15,-0.271 0.481,-0.451 0.646,-0.678 0.12,-0.135 0.241,-0.361 0.33,-0.525 0,0.002 1.144,-1.803 1.128,-1.953 z"
       id="path225"
       inkscape:connector-curvature="0"
       style="fill:url(#SVGID_4_)" /><path
       d="m 217.038,452.088 c -0.287,-0.256 -0.076,-0.889 -0.316,-1.219 -0.316,-0.48 -1.97,-0.406 -2.512,-0.496 -0.331,-0.045 -0.706,-0.18 -1.037,-0.316 -0.15,-0.059 -0.316,-0.314 -0.481,-0.33 -0.603,-0.045 -1.385,-0.285 -1.864,0.09 -0.302,0.271 0.21,0.842 0.316,1.219 0.21,0.736 0.149,0.691 0.901,0.736 0,0 0.149,-0.662 0.556,-0.736 0.406,-0.09 0.406,-0.016 0.963,-0.166 0.481,-0.119 1.79,-0.465 2.106,0.076 0.135,0.27 0.18,0.615 0.24,0.902 0,0 1.307,0.406 1.128,0.24 z"
       id="path227"
       inkscape:connector-curvature="0"
       style="fill:#4f4f4f;stroke:#919191;stroke-width:0.1953" /><path
       d="m 221.083,452.975 c -0.227,-0.406 -0.797,-1.008 -0.48,-1.369 0.284,-0.33 0.932,0.137 1.293,0.406 0.345,0.227 0.963,1.414 0.872,1.85 -0.015,0.197 -0.302,0.348 -0.481,0.332 -0.211,-0.016 -1.115,-1.038 -1.204,-1.219 z"
       id="path229"
       inkscape:connector-curvature="0"
       style="fill:#4f4f4f;stroke:#919191;stroke-width:0.1953" /><g
       id="g231"><path
         d="m 204.991,452.885 c 0.542,-0.33 3.475,-1.232 4.106,-1.369 0,0 1.699,1.219 2.991,4.377 3.265,2.467 -0.722,5.744 -4.465,3.789 -0.498,-0.195 -2.302,-2.871 -2.782,-3.066 0,-10e-4 -0.106,-3.581 0.15,-3.731 z"
         id="path233"
         inkscape:connector-curvature="0"
         style="fill:#eaeaea" /><path
         d="m 204.96,452.885 c 0.496,-0.33 2.964,-1.082 3.534,-1.219 0,0 1.444,1.385 2.526,4.137 2.723,2.195 -0.66,5.098 -3.789,3.457 -0.436,-0.195 -1.97,-2.449 -2.391,-2.645 0.001,0 -0.105,-3.58 0.12,-3.73 z"
         id="path235"
         inkscape:connector-curvature="0"
         style="fill:#dedede" /><path
         d="m 204.93,452.885 c 0.437,-0.33 2.467,-0.918 2.978,-1.053 0,0 1.173,1.533 2.046,3.895 2.165,1.91 -0.616,4.438 -3.113,3.129 -0.376,-0.211 -1.639,-2.045 -2.015,-2.24 0,-10e-4 -0.091,-3.581 0.104,-3.731 z"
         id="path237"
         inkscape:connector-curvature="0"
         style="fill:#d3d3d3" /><path
         d="m 204.9,452.885 c 0.377,-0.33 1.972,-0.752 2.392,-0.887 0,0 0.918,1.668 1.595,3.639 1.639,1.639 -0.557,3.789 -2.437,2.797 -0.331,-0.195 -1.323,-1.623 -1.639,-1.818 0,-10e-4 -0.076,-3.581 0.089,-3.731 z"
         id="path239"
         inkscape:connector-curvature="0"
         style="fill:#c7c7c7" /><path
         d="m 204.886,452.885 c 0.301,-0.33 1.458,-0.588 1.819,-0.723 0,0 0.646,1.82 1.098,3.4 1.098,1.352 -0.481,3.113 -1.729,2.465 -0.286,-0.195 -1.009,-1.217 -1.279,-1.412 0,0 -0.06,-3.58 0.091,-3.73 z"
         id="path241"
         inkscape:connector-curvature="0"
         style="fill:#bcbcbc" /><path
         d="m 204.841,452.885 c 0.27,-0.33 0.963,-0.422 1.263,-0.572 0,0 0.392,1.986 0.632,3.158 0.556,1.082 -0.422,2.467 -1.054,2.137 -0.226,-0.195 -0.676,-0.797 -0.887,-0.992 0,-10e-4 -0.06,-3.581 0.046,-3.731 z"
         id="path243"
         inkscape:connector-curvature="0"
         style="fill:#b0b0b0" /></g><path
       d="m 204.826,452.9 c 0.195,-0.332 0.451,-0.271 0.677,-0.406 0,0 0.136,2.121 0.166,2.918 0.014,0.781 -0.376,1.789 -0.376,1.789 -0.166,-0.195 -0.346,-0.391 -0.512,-0.572 0,0 -0.046,-3.578 0.045,-3.729 z"
       id="path245"
       inkscape:connector-curvature="0"
       style="fill:#454545" /><path
       d="m 217.563,455.02 c -0.074,-0.18 0.422,-0.164 0.617,-0.135 0.497,0.031 0.948,0.541 1.534,0.557 0.196,0 0.436,-0.211 0.616,-0.15 0.149,0.061 -0.24,1.73 -0.691,1.398 -0.271,-0.211 -0.271,-0.902 -0.557,-1.113 -0.299,-0.241 -1.383,-0.212 -1.519,-0.557 z"
       id="path247"
       inkscape:connector-curvature="0"
       style="fill:#4f4f4f;stroke:#919191;stroke-width:0.1953" /><path
       d="m 205.712,445.5 -0.616,-0.857 0.315,-2.525 1.429,2.24 c 0,-10e-4 -1.158,1.052 -1.128,1.142 z"
       id="path249"
       inkscape:connector-curvature="0"
       style="fill:#292929;stroke:#b7b7b7;stroke-width:0.1953" /><polygon
       points="208.721,443.184 207.518,443.832 205.773,441.471 207.308,440.387 "
       id="polygon251"
       style="fill:#292929;stroke:#b7b7b7;stroke-width:0.1953" /><polygon
       points="209.503,439.531 207.954,440.133 209.232,442.883 210.525,442.389 "
       id="polygon253"
       style="fill:#292929;stroke:#b7b7b7;stroke-width:0.1953" /><polygon
       points="212.405,438.838 210.33,439.289 211.248,442.297 212.932,442.086 "
       id="polygon255"
       style="fill:#292929;stroke:#b7b7b7;stroke-width:0.1953" /><path
       d="m 213.398,438.732 0.376,3.279 c 0,0 1.743,0.225 1.743,0.061 0,-0.18 0,-3.34 0,-3.34 l -2.119,0 z"
       id="path257"
       inkscape:connector-curvature="0"
       style="fill:#292929;stroke:#b7b7b7;stroke-width:0.1953" /><polygon
       points="218.586,439.365 216.465,438.988 216.316,442.193 217.909,442.523 "
       id="polygon259"
       style="fill:#292929;stroke:#b7b7b7;stroke-width:0.1953" /><polygon
       points="220.948,440.764 219.142,439.695 218.466,442.553 220.121,443.426 "
       id="polygon261"
       style="fill:#292929;stroke:#b7b7b7;stroke-width:0.1953" /><polygon
       points="221.503,444.643 220.556,443.832 221.383,441.064 222.767,442.658 "
       id="polygon263"
       style="fill:#292929;stroke:#b7b7b7;stroke-width:0.1953" /><polygon
       points="223.685,445.816 221.925,445.02 223.233,443.291 224.556,444.914 "
       id="polygon265"
       style="fill:#292929;stroke:#b7b7b7;stroke-width:0.1953" /><polygon
       points="224.18,446.209 224.783,445.516 225.548,448.402 "
       id="polygon267"
       style="fill:#292929;stroke:#b7b7b7;stroke-width:0.1953" /><path
       d="m 208.406,450.146 c -0.271,-0.51 -1.054,-2.24 -0.678,-2.691 0.376,-0.451 2.03,0.633 2.587,0.406 0.692,-0.314 1.278,-0.947 2.03,-1.174 0.165,-0.059 0.557,0.197 0.467,0.348 -0.392,0.615 -1.129,1.008 -1.625,1.533 -0.542,0.586 -0.857,1.475 -1.52,1.85 -0.375,0.195 -1.066,0.09 -1.261,-0.272 z"
       id="path269"
       inkscape:connector-curvature="0"
       style="fill:#4f4f4f;stroke:#919191;stroke-width:0.1953" /><polygon
       points="209.534,421.183 209.623,438.492 208.646,438.732 "
       id="polygon271"
       style="fill:#ffffff" /></g><path
     d="m 23.288001,96.751 c 0.455,0.039 1.775,-0.32 2.202,-0.451 1.041,-0.316 2.085,-0.512 3.043,-1.004 1.162,-0.594 2.302,-0.979 3.426,-1.652 1.113,-0.668 2.588,-1.389 3.594,-2.176 1.69,-1.326 3.114,-3.414 3.676,-3.744 0.03,0.359 -0.959,1.887 -1.169,2.178 -0.312,0.43 -0.447,0.695 -0.752,1.131 -0.675,0.961 -1.859,1.572 -2.842,2.176 -1.838,1.131 -7.725,4.463 -9.649,4.463 l -1.529,-0.921 z"
     id="path273"
     inkscape:connector-curvature="0" /><g
     id="g275"
     transform="translate(-163.565,-350.399)"><path
       d="m 210.031,366.351 c -0.436,0.128 -0.878,0.351 -1.219,0.739 0.049,0.182 0.216,0.171 0.362,0.191 0.299,-0.67 0.953,-0.625 1.489,-0.582 0.079,0.168 -0.014,0.398 0.03,0.595 -0.216,-0.066 -0.689,-0.118 -0.805,0.249 -0.147,0.274 0.185,0.374 0.163,0.615 0.438,0.186 0.229,-0.525 0.587,-0.506 0.119,0.207 -0.161,0.671 0.213,0.691 0.13,-0.067 0.18,-0.2 0.186,-0.338 0.067,0.149 0.261,0.264 0.186,0.461 l -0.155,0.134 c 0.159,0.547 0.481,-0.19 0.662,0.306 0.096,0.363 0.316,0.794 0.619,0.977 0.235,-0.451 0.512,-0.793 0.975,-0.951 0.196,0.184 -0.006,0.623 -0.024,0.951 -0.104,-0.103 -0.259,-0.281 -0.414,-0.146 -0.17,0.218 -0.41,0.411 -0.374,0.764 0.087,0.237 0.26,0.281 0.419,0.13 l 0.234,-0.262 c -0.063,0.13 0.028,0.212 0.089,0.308 l 0.38,-0.014 -0.213,0.109 c 0.092,0.395 0.366,0.854 0.67,1.054 0.192,-0.181 0.756,-0.03 0.968,-0.433 0.154,0.58 -0.63,0.291 -0.701,0.855 0.132,0.818 0.119,1.895 0.912,2.34 l 0.327,1.216 c -0.389,-0.024 -0.582,-0.938 -1.037,-1.108 -5.021,-4.143 -12.559,-3.188 -18.099,-0.5 -2.065,1.402 -4.131,3.207 -5.006,5.602 0.026,-0.57 -0.151,-1.778 0.313,-2.459 0.023,0.142 0.153,0.072 0.236,0.12 l 0.142,-0.137 c -0.166,-0.493 -0.609,0.05 -0.756,-0.474 -0.55,0.145 0.153,0.475 -0.167,0.705 -0.133,-0.123 -0.165,-0.405 -0.093,-0.675 0.105,-0.106 0.254,0.003 0.353,-0.155 0.083,-0.65 -0.689,-0.016 -0.545,-0.672 0.414,-0.253 0.503,-0.536 0.804,-0.631 0.131,0.229 -0.026,0.777 0.412,0.652 0.382,-0.433 -0.193,-1.7 0.752,-1.578 l 0.011,-0.069 -0.821,-0.049 c -0.218,-0.554 1.186,-1.27 0.307,-2.026 0.094,-0.23 0.165,-0.497 0.441,-0.439 0.279,-0.046 0.391,0.215 0.684,0.168 0.4,-0.655 1.045,-1.133 1.621,-1.466 0.028,0.124 0.188,0.149 0.251,0.036 0.076,-0.112 0.276,-0.135 0.231,-0.332 -0.033,-0.181 -0.237,-0.226 -0.357,-0.121 -0.159,-0.25 -0.048,-0.687 0.082,-0.945 0.359,-0.086 0.853,-0.259 1.119,0.162 l 0.142,-0.136 c -0.04,-0.632 -0.785,-0.184 -0.89,-0.79 -0.641,0.653 -0.859,-0.092 -1.466,-0.057 -0.931,-1.32 -1.043,-2.971 -0.503,-4.648 0.008,-0.053 0.016,-0.102 0.024,-0.152 l 4.813,0.806 c 0.072,0.179 0.159,0.361 0.267,0.544 0.507,0.631 0.722,1.601 0.548,2.358 0.051,0.06 0.062,0.183 0.155,0.161 0.232,-0.54 0.364,-1.217 0.933,-1.481 0.311,0.132 0.577,0.466 0.699,0.849 0.016,0.194 -0.172,0.446 0.032,0.579 0.161,0.128 0.198,-0.109 0.281,-0.167 0.096,-0.63 -0.271,-0.996 -0.615,-1.412 -0.329,-0.501 -0.87,0.187 -1.124,0.271 -0.07,-0.428 0.58,-0.352 0.754,-0.707 0.468,-0.002 0.624,0.855 1.137,0.458 -0.043,-0.313 -0.422,-0.562 -0.289,-0.987 l 0.008,0.002 c 0.351,0.797 1.668,-0.124 1.474,1.162 0.136,0.193 0.425,0.08 0.521,-0.064 -0.03,-0.279 -0.12,-0.545 -0.224,-0.802 l 6.879,1.151 z"
       id="path277"
       inkscape:connector-curvature="0"
       style="fill:#bbbcbf" /><path
       d="m 193.782,363.629 c 0.516,-2.944 3.206,-4.365 5.292,-5.928 0.669,-0.735 0.936,-1.896 1.763,-2.385 0.701,0.537 -0.137,2.293 1.158,2.082 0.571,-0.684 1.258,-1.628 2.146,-1.531 0.101,0.623 -0.357,1.166 0.057,1.714 0.575,-0.214 0.824,-1.36 1.485,-0.967 0.486,0.575 -0.024,1.562 -0.016,2.207 -0.113,-0.052 -0.304,0.008 -0.358,-0.121 0.198,-0.319 0.317,-0.702 0.35,-1.132 -0.044,-0.287 -0.337,-0.154 -0.487,-0.143 -0.855,1.859 -3.438,1.709 -4.168,3.949 l -0.557,2.494 c -0.288,0.113 -0.567,0.267 -0.883,0.254 -0.551,-1.037 -0.181,-2.184 0.306,-3.209 0.546,-1.016 1.504,-2.181 2.62,-2.191 0.442,-0.144 1.046,-0.545 1.187,-1.08 l 0.099,-0.646 c -0.194,-0.115 -0.426,0.025 -0.556,0.283 -0.042,0.082 0.196,-0.195 -0.015,-0.297 -0.433,0.371 -0.896,0.844 -1.485,0.968 -0.349,-0.19 -1.202,-0.124 -0.896,-0.86 -0.045,-0.199 -0.213,-0.188 -0.344,-0.209 -0.255,2.605 -2.97,4.854 -1.884,7.554 l -4.814,-0.806 z"
       id="path279"
       inkscape:connector-curvature="0"
       style="fill:#bbbcbf" /><path
       d="m 201.373,364.9 c 0,-0.004 0.001,-0.004 0.003,-0.01 0.001,0.006 0.002,0.008 0.005,0.012 l -0.008,-0.002 z"
       id="path281"
       inkscape:connector-curvature="0"
       style="fill:#ffffff;stroke:#000000;stroke-width:0.43959999" /><linearGradient
       id="SVGID_5_"
       gradientUnits="userSpaceOnUse"
       x1="200.9644"
       y1="358.37549"
       x2="214.5015"
       y2="358.37549"><stop
         offset="0"
         style="stop-color:#FFFFFF"
         id="stop284" /><stop
         offset="1"
         style="stop-color:#000000"
         id="stop286" /></linearGradient><path
       d="m 203.152,365.198 c -0.196,-0.489 -0.445,-0.96 -0.451,-1.505 -0.355,-0.034 -0.429,0.547 -0.691,0.787 -0.693,0.105 -0.277,-1.361 -1.013,-0.967 -0.059,0.287 0.2,0.568 0.011,0.82 -0.192,-1.314 0.274,-2.9 1.101,-3.892 1.166,-1.136 2.536,-1.737 4.076,-1.251 0.469,-0.122 0.758,-0.638 0.984,-1.039 -0.097,-0.066 -0.133,-0.227 -0.29,-0.18 -0.294,0.251 -0.351,0.73 -0.76,0.845 l 0.187,-1.226 c 0.055,0.131 0.153,0.18 0.287,0.182 1.079,-3.148 4.307,-2.486 6.122,-4.639 0.373,-0.867 0.317,-2.093 0.927,-2.734 0.895,0.65 0.942,1.928 0.799,3.07 -0.444,3.242 -4.348,4.361 -3.715,8.141 0.074,1.507 0.027,3.1 -0.389,4.656 -0.102,0.021 -0.202,0.049 -0.306,0.083 l -6.879,-1.151 z"
       id="path288"
       inkscape:connector-curvature="0"
       style="fill:url(#SVGID_5_)" /><linearGradient
       id="SVGID_6_"
       gradientUnits="userSpaceOnUse"
       x1="213.4731"
       y1="352.0293"
       x2="205.5406"
       y2="365.84949"><stop
         offset="0"
         style="stop-color:#FFFFFF"
         id="stop291" /><stop
         offset="1"
         style="stop-color:#000000"
         id="stop293" /></linearGradient><path
       d="m 214.3,352.705 c -0.173,2.637 -2.01,4.23 -3.784,5.71 -1.167,2.735 0.271,6.267 -1.931,8.484 -0.097,0.839 -0.536,-0.148 -0.962,0.087 -0.281,-0.023 -0.622,0.029 -0.821,-0.05 l 0.364,-0.313 c -0.077,-0.395 -0.346,0.193 -0.491,-0.141 l -0.554,0.284 c -0.064,-0.479 -0.215,-1.372 -0.872,-1.015 -0.342,0.265 -0.295,0.861 -0.724,1.008 0.266,-0.569 0.093,-1.117 0.262,-1.734 -0.591,-0.766 -1.354,-1.799 -0.896,-2.932 l 0.202,-0.041 c -0.129,0.449 -0.113,1.149 0.129,1.637 0.561,0.567 1.25,0.6 1.943,0.283 0.483,0.104 0.534,-0.634 0.903,-0.895 0.27,-0.481 0.057,-0.966 -0.04,-1.416 0.618,-0.013 0.595,0.939 0.788,1.456 0.181,0.999 -0.569,1.675 -0.567,2.561 1.029,-0.634 1.168,-2.247 1.354,-3.489 0.399,0.249 0.281,1.031 0.273,1.587 0.129,0.838 -0.537,1.853 -0.183,2.409 2.074,-2.567 -0.8,-5.475 1.198,-7.933 1.603,-1.539 3.185,-3.12 3.735,-5.37 0.406,-0.641 0.171,-0.633 0.304,-1.031 0.416,-0.042 0.247,0.575 0.37,0.854 z"
       id="path295"
       inkscape:connector-curvature="0"
       style="fill:url(#SVGID_6_)" /><path
       d="m 208.374,359.442 c 0.18,0.704 -0.158,1.543 -0.613,1.962 -0.159,-0.04 -0.379,0.017 -0.491,-0.141 0.521,0.129 0.642,-0.551 0.844,-0.904 0.046,-0.792 -0.027,-1.604 -0.562,-2.15 0.35,0.259 0.8,0.673 0.822,1.233 z"
       id="path297"
       inkscape:connector-curvature="0"
       style="fill:#636466" /><path
       d="m 206.962,359.514 c -0.564,1.936 -2.707,-0.133 -3.4,1.871 -0.848,1.718 0.11,3.354 0.752,4.684 l -0.055,0.356 -0.31,-0.044 c -0.489,-1.74 -1.842,-3.747 -0.374,-5.586 0.51,-0.482 1.062,-0.646 1.645,-0.718 l -0.114,-0.538 c 0.199,-0.129 0.474,-0.244 0.654,-0.045 0.123,0.177 0.085,0.431 -0.088,0.58 0.32,0.168 0.779,0.027 1.005,-0.375 l 0.125,-0.418 c 0.103,0.016 0.175,0.129 0.16,0.233 z"
       id="path299"
       inkscape:connector-curvature="0"
       style="fill:#636466" /><path
       d="m 206.823,360.833 c -0.186,0.13 -0.49,0.556 -0.732,0.258 l -0.048,-0.076 c 0.286,0.094 0.545,-0.425 0.78,-0.182 z"
       id="path301"
       inkscape:connector-curvature="0"
       style="fill:#636466" /><path
       d="m 196.882,360.342 c 0.099,0.554 -0.378,0.517 -0.461,0.959 -0.138,-0.092 -0.229,0.122 -0.378,0.014 -0.075,-0.203 -0.014,-0.506 0.157,-0.641 0.211,-0.194 0.436,-0.388 0.682,-0.332 z"
       id="path303"
       inkscape:connector-curvature="0"
       style="fill:#636466" /><path
       d="m 197.636,368.105 c -0.505,0.045 -0.491,-0.838 -0.839,-1.22 -0.714,-1.061 -1.835,-1.815 -1.935,-3.239 l 0.234,-0.261 c -0.11,2.226 2.232,2.674 2.54,4.72 z"
       id="path305"
       inkscape:connector-curvature="0"
       style="fill:#bbbcbf" /><path
       d="m 194.141,364.133 c -0.234,0.557 -0.238,1.375 0.101,1.926 0.305,0.379 0.669,0.657 1.08,0.82 0.567,0.432 1.199,0.941 1.476,1.695 l 0.394,0.282 c 0.741,-0.413 1.444,-0.99 2.259,-0.991 -0.734,0.273 -1.551,0.694 -2.303,1.28 -0.498,0.015 -0.582,-0.729 -1.149,-0.759 -0.186,-1.262 -1.01,0.098 -1.426,-0.73 -0.179,-0.306 -0.543,-0.688 -0.398,-1.152 -0.505,-0.631 -0.637,-1.467 -0.291,-2.253 0.07,-0.075 0.16,-0.167 0.257,-0.118 z"
       id="path307"
       inkscape:connector-curvature="0"
       style="fill:#636466" /><path
       d="m 198.817,365.771 c -0.055,0.167 -0.002,0.521 -0.259,0.414 -0.262,-0.057 -0.372,-0.523 -0.448,-0.813 l 0.087,-0.579 c 0.497,0.004 0.414,0.652 0.62,0.978 z"
       id="path309"
       inkscape:connector-curvature="0"
       style="fill:#636466" /><radialGradient
       id="SVGID_7_"
       cx="206.4214"
       cy="379.66891"
       r="13.9601"
       gradientUnits="userSpaceOnUse"><stop
         offset="0"
         style="stop-color:#FFFFFF"
         id="stop312" /><stop
         offset="1"
         style="stop-color:#000000"
         id="stop314" /></radialGradient><path
       d="m 204.208,372.978 c 5.73,0 10.407,3.458 10.407,7.7 0,4.24 -4.677,7.699 -10.407,7.699 -5.729,0 -10.421,-3.459 -10.421,-7.699 0.001,-4.242 4.693,-7.7 10.421,-7.7 z"
       id="path316"
       inkscape:connector-curvature="0"
       style="fill:url(#SVGID_7_)" /><linearGradient
       id="SVGID_8_"
       gradientUnits="userSpaceOnUse"
       x1="217.02251"
       y1="373.81979"
       x2="185.5425"
       y2="375.9183"><stop
         offset="0"
         style="stop-color:#FFFFFF"
         id="stop319" /><stop
         offset="1"
         style="stop-color:#000000"
         id="stop321" /></linearGradient><path
       d="m 193.862,380.918 c -0.346,-1.008 -0.12,-5.836 0,-6.482 -0.06,-0.736 2.137,-4.226 3.159,-4.376 0.541,-0.722 4.21,-2.151 4.301,-1.79 1.218,-0.436 2.527,-0.45 3.76,-0.391 0,0 3.729,0.586 4.286,0.979 0.691,0.255 1.549,0.676 2.271,1.232 0.707,0.541 1.714,1.429 2.016,1.984 0.315,0.572 0.962,2.602 0.962,2.602 -0.075,2.031 0.136,4.604 0.091,6.152 -0.257,-0.858 -0.572,-2.497 -1.188,-3.64 -0.406,-0.737 -1.308,-1.535 -2.029,-2 -0.918,-0.572 -1.866,-1.128 -2.919,-1.399 -1.519,-0.391 -3.067,-0.707 -4.602,-0.812 -1.023,-0.075 -2.029,0.089 -3.022,0.315 -1.053,0.256 -2.09,0.797 -3.038,1.278 -0.933,0.751 -1.749,1.379 -2.426,2.132 -1.009,1.056 -1.696,3.765 -1.622,4.216 z"
       id="path323"
       inkscape:connector-curvature="0"
       style="fill:url(#SVGID_8_)" /><path
       d="m 203.968,378.646 c 2.436,0 4.438,1.173 4.438,2.587 0,1.429 -2.002,2.603 -4.438,2.603 -2.451,0 -4.45,-1.174 -4.45,-2.603 0,-1.414 1.999,-2.587 4.45,-2.587 z"
       id="path325"
       inkscape:connector-curvature="0"
       style="fill:#ababab" /><g
       id="g327"><path
         d="m 203.954,378.917 c 2.437,0 4.436,1.159 4.436,2.587 0,1.443 -1.999,2.602 -4.436,2.602 -2.452,0 -4.436,-1.158 -4.436,-2.602 0,-1.428 1.983,-2.587 4.436,-2.587 z"
         id="path329"
         inkscape:connector-curvature="0"
         style="fill:#9f9f9f" /><path
         d="m 203.938,379.188 c 2.437,0 4.438,1.159 4.438,2.587 0,1.429 -2.001,2.602 -4.438,2.602 -2.45,0 -4.436,-1.173 -4.436,-2.602 0,-1.428 1.986,-2.587 4.436,-2.587 z"
         id="path331"
         inkscape:connector-curvature="0"
         style="fill:#929292" /><path
         d="m 203.938,379.443 c 2.437,0 4.438,1.158 4.438,2.587 0,1.444 -2.001,2.602 -4.438,2.602 -2.45,0 -4.452,-1.157 -4.452,-2.602 0,-1.428 2.002,-2.587 4.452,-2.587 z"
         id="path333"
         inkscape:connector-curvature="0"
         style="fill:#848484" /><path
         d="m 203.923,379.715 c 2.437,0 4.436,1.156 4.436,2.586 0,1.443 -1.999,2.602 -4.436,2.602 -2.452,0 -4.438,-1.158 -4.438,-2.602 10e-4,-1.43 1.986,-2.586 4.438,-2.586 z"
         id="path335"
         inkscape:connector-curvature="0"
         style="fill:#777777" /><path
         d="m 203.909,379.985 c 2.436,0 4.437,1.157 4.437,2.587 0,1.428 -2.001,2.602 -4.437,2.602 -2.451,0 -4.437,-1.174 -4.437,-2.602 0,-1.429 1.986,-2.587 4.437,-2.587 z"
         id="path337"
         inkscape:connector-curvature="0"
         style="fill:#6a6a6a" /></g><path
       d="m 203.893,380.256 c 2.437,0 4.437,1.158 4.437,2.586 0,1.43 -2,2.603 -4.437,2.603 -2.451,0 -4.451,-1.173 -4.451,-2.603 0,-1.428 2,-2.586 4.451,-2.586 z"
       id="path339"
       inkscape:connector-curvature="0"
       style="fill:#292929" /><path
       d="m 187.395,445.916 c -0.045,-1.701 0.14,-3.43 0.508,-5.115 0.368,-1.729 0.306,-3.939 0.751,-5.668 0.445,-1.654 0.844,-3.143 1.212,-4.844 0.215,-1.037 0.92,-1.984 1.043,-3.053 0.107,-0.797 0.43,-1.412 0.43,-2.225 0,-2.166 0,-4.393 0,-6.559 0,0 0.261,-1.684 0.476,-3.158 0.537,-1.246 0.645,-1.938 1.135,-3.623 0.476,-1.685 0.123,-1.971 1.105,-3.655 0.981,-1.698 0.705,-2.104 1.441,-4.06 0.752,-1.94 1.09,-4.121 1.09,-4.121 0.291,-0.752 0.873,-1.443 0.92,-2.256 0.062,-0.902 -0.491,-1.773 -0.582,-2.676 -0.185,-1.745 -0.385,-3.641 -0.415,-5.4 0,-0.751 0.629,-1.263 0.659,-2 -1.318,-4.436 -1.411,-5.053 0.675,-7.293 0.553,-1.654 0.2,-2.889 1.028,-2.527 1.871,0.076 0.644,4.347 0.368,4.588 1.227,0 3.206,-0.737 3.206,-0.737 0.63,0.149 1.305,0.24 1.902,0.466 0.583,0.227 1.059,0.677 1.642,0.873 0.444,0.149 0.921,0.18 1.396,0.195 0.646,0.015 1.626,-0.617 1.979,-0.075 0.568,0.888 -0.214,2.136 0,3.157 0.107,0.527 0.92,0.781 0.981,1.309 0.43,3.099 -0.077,6.15 -1.259,9.039 -0.475,1.156 -1.227,2.226 -1.809,3.323 -0.722,1.323 -1.458,2.677 -2.163,4.015 -0.277,0.512 -0.965,10.7 -0.799,12.438 0.168,1.738 0.093,7.294 -0.138,8.738 -0.244,1.457 -1.242,4.857 -1.242,4.857 0,1.549 -0.122,3.098 0,4.631 -0.169,2 -0.307,1.43 -0.215,3.459 -0.538,1.309 -1.963,3.248 -3.253,3.865 -3.16,2.137 -3.421,1.955 -5.262,3.203 -1.947,1.098 -3.941,2.572 -6.074,2.572 -0.627,0.001 -0.719,-1.083 -0.736,-1.683 z"
       id="path341"
       inkscape:connector-curvature="0"
       style="fill:#ededed;stroke:#e7e7e7;stroke-width:0.1213" /><path
       d="m 200.088,390.812 c 0.03,-1.384 2.437,-1.984 3.64,-1.714 1.053,0.21 2.12,0.842 2.181,2.03 l 0,5.113 c -0.166,-0.271 -0.286,-0.692 -0.572,-0.812 -1.277,-0.557 -2.991,-1.143 -4.842,0.166 -0.24,0.15 -0.376,1.098 -0.406,0.812 l 0,-5.595 z"
       id="path343"
       inkscape:connector-curvature="0"
       style="fill:#e2e2e2" /><path
       d="m 202.992,394.783 c 1.593,0 2.917,0.662 2.917,1.459 0,0.797 -1.324,1.459 -2.917,1.459 -1.595,0 -2.903,-0.662 -2.903,-1.459 0,-0.797 1.308,-1.459 2.903,-1.459 z"
       id="path345"
       inkscape:connector-curvature="0"
       style="fill:#8c8c8c;stroke:#4d4d4d;stroke-width:0.0449" /><path
       d="m 197.758,384.481 c 0.119,0.136 -0.152,-0.45 0,-0.571 0.525,-0.467 1.202,-0.752 1.833,-1.037 0.828,-0.377 1.686,-0.889 2.588,-0.979 0.782,-0.09 1.684,0.436 2.436,0.632 1.067,0.767 2.075,0.557 2.347,0.662 0.286,0.391 -0.587,0.946 -1.053,0.963 -0.632,0.029 -1.113,-0.617 -1.7,-0.798 -0.601,-0.195 -1.247,-0.225 -1.863,-0.331 -1.565,0.241 -2.948,1.083 -4.347,1.775 -0.121,-0.316 -0.136,-0.692 -0.332,-0.962 -0.12,-0.181 -0.061,0.511 0.091,0.646 z"
       id="path347"
       inkscape:connector-curvature="0"
       style="fill:#ffffff;stroke:#f5f5f5;stroke-width:0.1953" /><path
       d="m 199.442,385.248 c 1.067,0.347 2.873,-0.239 4.061,-0.239 0.646,0 0.826,-0.091 1.112,0.194 0.285,0.285 0.603,1.188 0.842,1.398 0.392,0.392 1.835,1.219 2.468,0.902 0.149,-0.074 0.105,-0.406 0,-0.525 -0.227,-0.211 -0.616,-0.271 -0.873,-0.422 -0.647,-0.331 -1.082,-0.767 -1.549,-1.309 -0.21,-0.239 -0.827,-1.203 -1.158,-1.263 -0.691,-0.089 -1.399,0 -2.061,0 -0.962,0 -1.608,0.36 -2.557,0.481 -0.405,0.377 -0.781,1.099 -0.285,0.783 z"
       id="path349"
       inkscape:connector-curvature="0"
       style="fill:#ffffff;stroke:#f5f5f5;stroke-width:0.1953" /><path
       d="m 198.284,394.663 c -0.119,-0.255 -0.797,-3.098 -0.797,-3.098 -0.121,-0.708 -0.256,-1.444 -0.376,-2.151 0,0 0.149,-0.812 0.602,-0.932 0.466,-0.12 0.662,-0.331 0.992,-0.572 0.316,-0.226 1.309,-0.736 1.309,-0.736 0.241,-0.135 0.526,-0.406 0.827,-0.467 0.827,-0.135 1.699,-0.09 2.572,-0.15 0,0 1.263,0.256 1.429,0.467 0.165,0.226 2.015,0.992 2.015,0.992 0,0.181 0.076,0.482 -0.046,0.602 -0.3,0.24 -0.766,0.481 -1.111,0.376 -0.393,-0.136 -0.467,-0.752 -0.799,-1.022 -0.375,-0.301 -0.826,-0.661 -1.308,-0.707 -0.525,-0.045 -1.053,0.36 -1.579,0.376 -0.602,0.03 -1.247,-0.255 -1.819,-0.136 -0.512,0.091 -0.918,0.557 -1.354,0.842 -0.271,0.182 -0.632,0.377 -0.798,0.647 -0.405,0.677 -0.044,1.534 -0.044,2.241 0,0.331 0.195,1.188 0.285,1.789 0.091,0.602 0.421,1.774 0.421,1.774 -0.151,-0.044 -0.376,-0.029 -0.421,-0.135 z"
       id="path351"
       inkscape:connector-curvature="0"
       style="fill:#ffffff;stroke:#f5f5f5;stroke-width:0.1953" /><path
       d="m 208.435,384.451 c 0,-0.346 0,-0.707 0,-1.067 0.421,-0.857 -0.947,-0.181 -1.022,0.751 0.195,0.422 0.241,2.559 0.465,2.844 0.241,0.285 0.979,1.082 0.979,1.082 0,0 -0.286,0.887 -0.286,1.309 0,0.421 -0.54,1.819 -0.54,1.819 -0.527,0.526 -1.294,1.233 -1.414,2.016 -0.016,0.075 -0.286,2.752 -0.182,2.767 0.316,0.03 0.647,0.106 0.934,0.136 0,0 0.751,-0.496 0.826,-0.707 0.091,-0.195 0.226,-1.505 0.241,-1.714 0.03,-0.227 0.286,-1.699 0.286,-1.699 0.165,-0.346 0.495,-0.723 0.603,-1.129 0.224,-0.842 0.224,-2.074 0.224,-2.992 0,-0.21 -0.074,-0.436 -0.074,-0.646 0,0 -0.451,-0.09 -0.527,-0.512 -0.075,-0.42 -0.511,-1.639 -0.511,-1.639 -0.002,-0.213 -0.002,-0.424 -0.002,-0.619 z"
       id="path353"
       inkscape:connector-curvature="0"
       style="fill:#ffffff;stroke:#f5f5f5;stroke-width:0.1953" /><path
       d="m 198.66,399.52 c -0.706,-0.271 -1.067,-0.721 -1.563,0.527 0,0 0.255,2.437 0.255,2.842 0,0.406 -0.901,5.745 -0.901,7.054 0,1.294 -0.301,5.505 -0.151,6.963 0.151,1.459 1.609,6.496 1.609,6.496 0.646,0.181 1.309,0.782 1.94,0.571 0.496,-0.164 0.451,-1.007 0.646,-1.473 0,0 0.496,-5.023 0.571,-5.43 0.075,-0.407 0.315,-4.135 0.315,-4.135 -0.466,-0.828 -0.978,-1.686 -1.458,-2.512 0,0 -0.737,-1.219 -0.812,-1.7 -0.061,-0.466 -0.15,-2.751 -0.15,-2.751 0,0 -0.091,-1.865 -0.091,-2.512 0.06,-0.646 -0.044,-3.97 -0.21,-3.94 z"
       id="path355"
       inkscape:connector-curvature="0"
       style="fill:#ffffff;stroke:#f5f5f5;stroke-width:0.1953" /><path
       d="m 192.012,429.072 c 0.346,-0.541 0.316,-1.369 0.737,-1.865 0.557,0.211 1.384,0.572 1.534,-0.812 0.226,-0.15 0.436,-0.436 0.646,-0.646 0,0 2.257,2.076 2.331,2.195 0.316,0.377 2.497,1.85 2.497,1.85 0,0 0.827,1.143 1.067,1.639 0.241,0.482 0.392,0.963 0.392,0.963 -0.722,-0.541 -1.232,-1.473 -2.03,-1.834 -0.557,-1.684 -1.729,-0.932 -3.007,-1.053 -0.316,-0.15 -0.843,-0.586 -1.174,-0.678 -0.526,-0.615 -1.264,-0.104 -1.939,0.318 -0.691,0.164 -1.31,0.766 -2.016,0.734 -0.422,-0.014 0.752,-0.465 0.962,-0.811 z"
       id="path357"
       inkscape:connector-curvature="0"
       style="fill:#e2e2e2" /><path
       d="m 197.351,423.326 c 0.451,-2.135 -1.744,-4.15 -2.029,-6.331 -0.287,-2.181 0.165,-4.437 0.24,-6.646 0.06,-1.925 0.736,-3.97 0.241,-5.835 -0.212,-0.828 -0.812,1.533 -1.204,2.271 0,0 -1.203,4.452 -1.367,5.504 -0.166,1.054 -1.07,3.744 -1.22,4.467 -0.149,0.722 -0.391,3.067 -0.556,3.88 -0.166,0.812 -0.572,3.324 -0.572,3.73 0,0.406 0.075,2.029 0.075,2.029 0,0 0.662,-0.164 0.903,-0.57 0.225,-0.393 1.925,-1.775 1.925,-1.775 1.173,-0.228 3.309,0.436 3.564,-0.724 z"
       id="path359"
       inkscape:connector-curvature="0"
       style="fill:#d4d4d4" /><path
       d="m 189.367,446.576 c -0.076,-2.33 -0.211,-4.646 -0.211,-6.977 0,-2.707 -0.121,-6.242 1.187,-8.707 0.332,-0.617 1.114,-1.385 1.806,-1.189 0.662,0.18 0.556,1.309 0.827,1.939 0,0 0.346,2.512 0.557,4.889 0.21,2.377 0.24,6.557 0.347,7.174 0.404,1.639 -4.273,3.729 -4.513,2.871 z"
       id="path361"
       inkscape:connector-curvature="0"
       style="fill:#a8a8a8" /><path
       d="m 202.629,437.568 c 0.691,-1.518 -0.135,-3.383 -0.21,-5.084 0,0 0.075,-2.797 0.21,-3.203 0.122,-0.404 0.271,-1.414 0.407,-1.895 0.149,-0.48 0.284,-2.105 0.42,-2.436 0.136,-0.331 0.271,-3.7 0.271,-3.7 0.03,-1.835 0.091,-3.669 0.091,-5.504 -0.017,-1.174 -0.152,-2.376 -0.211,-3.564 0,0 -0.633,2.933 -0.633,3.564 0,0.616 0.062,4.677 0,5.157 -0.061,0.498 -1.111,2.242 -1.111,2.242 -0.257,0.33 -0.752,0.572 -0.769,0.961 0,0.379 0.633,0.514 0.708,0.844 0.21,1.068 -0.241,3.158 -0.632,4.121 -0.422,1.068 -0.06,2.391 0.06,3.488 0,0 -0.285,0.496 -0.406,0.979 -0.135,0.48 -1.669,1.955 -1.804,2.721 -0.135,0.752 0.195,5.76 0.195,5.76 1.31,-1.007 2.724,-2.947 3.414,-4.451 z"
       id="path363"
       inkscape:connector-curvature="0"
       style="fill:#ababab" /><g
       id="g365"><path
         d="m 196.223,423.838 c 0.392,-1.76 -1.308,-3.43 -1.488,-5.219 -0.165,-1.789 0.24,-3.654 0.316,-5.488 0.06,-1.595 0.601,-3.295 0.194,-4.857 -0.181,-0.707 -0.662,1.142 -0.992,1.698 -0.016,-0.029 -0.992,3.505 -1.128,4.315 -0.15,0.783 -0.978,2.918 -1.144,3.475 -0.149,0.587 -0.36,2.527 -0.511,3.264 -0.136,0.692 -0.466,2.736 -0.466,3.115 0,0.375 0.061,1.727 0.045,1.789 0,0.059 0.526,-0.045 0.722,-0.316 0.18,-0.256 1.564,-1.324 1.564,-1.295 0.949,-0.09 2.664,0.466 2.888,-0.481 z"
         id="path367"
         inkscape:connector-curvature="0"
         style="fill:#cbcbcb" /><path
         d="m 195.082,424.365 c 0.346,-1.399 -0.873,-2.709 -0.934,-4.106 -0.075,-1.413 0.286,-2.872 0.361,-4.331 0.074,-1.279 0.481,-2.632 0.166,-3.91 -0.151,-0.557 -0.527,0.782 -0.768,1.157 -0.029,-0.06 -0.782,2.543 -0.902,3.114 -0.149,0.525 -0.871,2.104 -1.067,2.466 -0.151,0.451 -0.332,1.985 -0.451,2.647 -0.121,0.57 -0.361,2.165 -0.376,2.512 -0.016,0.346 0.03,1.428 0.015,1.533 0.016,0.105 0.406,0.105 0.557,-0.029 0.136,-0.15 1.174,-0.902 1.174,-0.828 0.721,0.015 2.028,0.496 2.225,-0.225 z"
         id="path369"
         inkscape:connector-curvature="0"
         style="fill:#c2c2c2" /><path
         d="m 193.954,424.875 c 0.271,-1.021 -0.452,-1.97 -0.406,-2.992 0.03,-1.021 0.36,-2.075 0.436,-3.143 0.075,-0.979 0.33,-2.016 0.105,-2.947 -0.091,-0.451 -0.347,0.391 -0.541,0.586 -0.046,-0.09 -0.557,1.579 -0.662,1.91 -0.151,0.24 -0.768,1.277 -0.993,1.459 -0.136,0.33 -0.286,1.443 -0.405,2.03 -0.076,0.45 -0.257,1.594 -0.271,1.909 -0.017,0.316 0.014,1.129 0,1.279 0,0.164 0.271,0.24 0.36,0.24 0.105,-0.016 0.798,-0.451 0.812,-0.332 0.496,0.122 1.399,0.515 1.565,10e-4 z"
         id="path371"
         inkscape:connector-curvature="0"
         style="fill:#bababa" /><path
         d="m 192.81,425.418 c 0.21,-0.678 -0.016,-1.277 0.136,-1.896 0.15,-0.647 0.421,-1.309 0.496,-2.001 0.09,-0.646 0.226,-1.338 0.074,-1.984 -0.061,-0.302 -0.21,0.029 -0.331,0.045 -0.045,-0.136 -0.329,0.631 -0.421,0.707 -0.135,-0.016 -0.661,0.466 -0.917,0.451 -0.135,0.195 -0.255,0.902 -0.346,1.413 -0.045,0.331 -0.166,1.038 -0.181,1.31 -0.015,0.285 -0.015,0.826 -0.03,1.037 0.016,0.211 0.151,0.375 0.211,0.496 0.045,0.105 0.406,0 0.406,0.15 0.286,0.243 0.767,0.557 0.903,0.272 z"
         id="path373"
         inkscape:connector-curvature="0"
         style="fill:#b1b1b1" /></g><path
       d="m 191.652,425.93 c 0.286,-0.602 1.082,-0.963 1.248,-1.611 0.166,-0.646 -0.015,-1.413 -0.271,-2.014 -0.12,-0.302 -0.557,-0.377 -0.843,-0.557 -0.539,0.225 -0.586,4.451 -0.134,4.182 z"
       id="path375"
       inkscape:connector-curvature="0"
       style="fill:#a8a8a8" /><path
       d="m 195.411,428.229 c -0.149,-0.48 -0.194,-1.053 -0.285,-1.594 0,0 0.827,0.076 1.113,0.482 0.27,0.404 1.112,0.707 1.112,1.188 0,0.482 0.075,0.844 -0.346,0.768 -0.42,-0.077 -1.578,-0.768 -1.594,-0.844 z"
       id="path377"
       inkscape:connector-curvature="0"
       style="fill:#ababab" /><path
       d="m 199.712,398.935 c 1.354,-0.196 2.768,-0.331 4.166,-0.271 0.586,0.029 1.157,0.42 1.744,0.631 0,0 0.978,-0.992 1.31,-1.474 0.346,-0.497 1.743,-2.511 1.743,-2.511 -0.768,1.698 -1.503,3.457 -2.226,5.158 0,0 -0.646,1.623 -0.827,2.015 -0.195,0.405 -0.947,1.067 -0.992,1.474 -0.181,1.398 -0.571,2.857 -0.752,4.256 -0.135,1.053 0.963,0.436 -0.212,1.895 -1.157,1.444 -1.202,1.475 -1.533,1.669 -0.316,0.182 -0.48,-0.075 -1.248,-0.36 -0.752,-0.271 -0.918,-0.361 -1.037,-0.768 -0.315,-0.977 -0.136,-1.939 -0.271,-2.917 -0.196,-1.398 -0.632,-3.007 -0.497,-4.406 0.06,-0.677 -0.104,-2.542 -0.06,-2.856 0.046,-0.319 0.542,-1.506 0.692,-1.535 z"
       id="path379"
       inkscape:connector-curvature="0"
       style="fill:#666666" /><path
       d="m 200.419,396.392 0,3.233 c 0.496,-0.33 3.97,-0.857 5.158,0.438 l -0.045,-3.836 c -0.932,-1.248 -4.616,-1.293 -5.113,0.165 z"
       id="path381"
       inkscape:connector-curvature="0"
       style="fill:#e2e2e2" /><path
       d="m 202.992,397.926 c 1.443,0 2.616,0.902 2.616,2.031 0,1.113 -1.173,2.029 -2.616,2.029 -1.43,0 -2.602,-0.916 -2.602,-2.029 0,-1.129 1.172,-2.031 2.602,-2.031 z"
       id="path383"
       inkscape:connector-curvature="0"
       style="fill:#4f4f4f" /><g
       id="g385"><path
         d="m 203.081,398.001 c 1.278,0 2.331,0.812 2.331,1.82 0,0.993 -1.053,1.819 -2.331,1.819 -1.293,0 -2.331,-0.826 -2.331,-1.819 0,-1.008 1.038,-1.82 2.331,-1.82 z"
         id="path387"
         inkscape:connector-curvature="0"
         style="fill:#727272" /><path
         d="m 203.157,398.076 c 1.128,0 2.061,0.723 2.061,1.609 0,0.886 -0.933,1.609 -2.061,1.609 -1.144,0 -2.075,-0.723 -2.075,-1.609 0,-0.886 0.931,-1.609 2.075,-1.609 z"
         id="path389"
         inkscape:connector-curvature="0"
         style="fill:#888888" /><path
         d="m 203.231,398.152 c 0.994,0 1.79,0.615 1.79,1.398 0,0.767 -0.796,1.398 -1.79,1.398 -0.992,0 -1.789,-0.632 -1.789,-1.398 0,-0.782 0.797,-1.398 1.789,-1.398 z"
         id="path391"
         inkscape:connector-curvature="0"
         style="fill:#9d9d9d" /><path
         d="m 203.307,398.227 c 0.842,0 1.534,0.541 1.534,1.188 0,0.661 -0.692,1.188 -1.534,1.188 -0.843,0 -1.534,-0.527 -1.534,-1.188 0,-0.647 0.691,-1.188 1.534,-1.188 z"
         id="path393"
         inkscape:connector-curvature="0"
         style="fill:#b1b1b1" /><path
         d="m 203.382,398.303 c 0.691,0 1.248,0.436 1.248,0.992 0,0.526 -0.557,0.962 -1.248,0.962 -0.691,0 -1.249,-0.436 -1.249,-0.962 0,-0.557 0.558,-0.992 1.249,-0.992 z"
         id="path395"
         inkscape:connector-curvature="0"
         style="fill:#c5c5c5" /><path
         d="m 203.457,398.377 c 0.542,0 0.993,0.347 0.993,0.768 0,0.436 -0.451,0.768 -0.993,0.768 -0.542,0 -0.992,-0.332 -0.992,-0.768 -0.001,-0.421 0.45,-0.768 0.992,-0.768 z"
         id="path397"
         inkscape:connector-curvature="0"
         style="fill:#dcdcdc" /></g><path
       d="m 203.533,398.453 c 0.391,0 0.722,0.24 0.722,0.557 0,0.3 -0.331,0.556 -0.722,0.556 -0.392,0 -0.707,-0.256 -0.707,-0.556 0,-0.317 0.315,-0.557 0.707,-0.557 z"
       id="path399"
       inkscape:connector-curvature="0"
       style="fill:#f1f1f1" /><path
       d="m 200.178,368.465 c 2.797,-0.812 5.791,-0.736 8.993,0.226 0,1.745 0,3.489 0,5.233 -3.744,-1.203 -6.662,-1.217 -8.993,-0.375 0,-1.699 0,-3.4 0,-5.084 z"
       id="path401"
       inkscape:connector-curvature="0"
       style="fill:#919191" /><g
       id="g403"><path
         d="m 200.615,368.391 c 2.496,-0.707 5.174,-0.632 8.031,0.18 0,1.746 0,3.49 0,5.234 -3.324,-1.053 -5.941,-1.038 -8.046,-0.332 0,-1.7 0,-3.399 0.015,-5.082 z"
         id="path405"
         inkscape:connector-curvature="0"
         style="fill:#bdbdbd" /><path
         d="m 201.036,368.314 c 2.211,-0.586 4.572,-0.525 7.083,0.15 0,1.73 0,3.489 0,5.234 -2.901,-0.903 -5.218,-0.888 -7.098,-0.301 0,-1.698 0,-3.383 0.015,-5.083 z"
         id="path407"
         inkscape:connector-curvature="0"
         style="fill:#d9d9d9" /><path
         d="m 201.458,368.255 c 1.925,-0.481 3.97,-0.436 6.136,0.091 0,1.744 0,3.488 0,5.232 -2.482,-0.751 -4.496,-0.736 -6.151,-0.255 -0.001,-1.699 -0.001,-3.384 0.015,-5.068 z"
         id="path409"
         inkscape:connector-curvature="0"
         style="fill:#e3e3e3" /><path
         d="m 201.893,368.18 c 1.64,-0.36 3.354,-0.331 5.174,0.046 0,1.759 0,3.489 0,5.233 -2.061,-0.587 -3.76,-0.587 -5.189,-0.211 -10e-4,-1.685 -10e-4,-3.385 0.015,-5.068 z"
         id="path411"
         inkscape:connector-curvature="0"
         style="fill:#f0f0f0" /><path
         d="m 202.315,368.105 c 1.338,-0.242 2.751,-0.242 4.225,0.014 0,1.744 0,3.489 0,5.233 -1.64,-0.45 -3.037,-0.45 -4.24,-0.18 -0.001,-1.684 -0.001,-3.368 0.015,-5.067 z"
         id="path413"
         inkscape:connector-curvature="0"
         style="fill:#fcfcfc" /><path
         d="m 202.735,368.044 c 1.067,-0.136 2.151,-0.149 3.279,-0.045 0,1.745 0,3.489 0,5.233 -1.219,-0.301 -2.317,-0.301 -3.293,-0.135 0,-1.684 0,-3.368 0.014,-5.053 z"
         id="path415"
         inkscape:connector-curvature="0"
         style="fill:#fefefe" /></g><path
       d="m 203.157,367.984 c 0.781,-0.029 1.549,-0.061 2.331,-0.09 0,1.744 0,3.474 0,5.232 -0.798,-0.164 -1.595,-0.18 -2.331,-0.105 0,-1.683 0,-3.368 0,-5.037 z"
       id="path417"
       inkscape:connector-curvature="0"
       style="fill:#ffffff" /><path
       d="m 201.261,389.461 c 1.144,-0.799 2.331,-0.844 3.444,0 0,1.834 0,3.668 0,5.503 -1.385,-0.301 -2.467,-0.437 -3.264,0.06 0.001,-1.79 -0.193,-3.79 -0.18,-5.563 z"
       id="path419"
       inkscape:connector-curvature="0"
       style="fill:#e2e2e2" /><g
       id="g421"><path
         d="m 201.471,389.385 c 1.038,-0.677 2.106,-0.693 3.1,0.029 0,1.834 -0.03,3.686 -0.03,5.52 -1.233,-0.286 -2.241,-0.271 -2.934,0.03 0,-1.776 -0.149,-3.79 -0.136,-5.579 z"
         id="path423"
         inkscape:connector-curvature="0"
         style="fill:#e5e5e5" /><path
         d="m 201.682,389.34 c 0.903,-0.571 1.896,-0.571 2.768,0.029 0,1.819 -0.091,3.699 -0.091,5.549 -1.067,-0.271 -1.97,-0.255 -2.586,0 0,-1.789 -0.106,-3.82 -0.091,-5.578 z"
         id="path425"
         inkscape:connector-curvature="0"
         style="fill:#e7e7e7" /><path
         d="m 201.893,389.264 c 0.781,-0.451 1.669,-0.406 2.421,0.045 0,1.836 -0.119,3.73 -0.119,5.564 -0.918,-0.24 -1.686,-0.226 -2.242,0 0,-1.789 -0.076,-3.835 -0.06,-5.609 z"
         id="path427"
         inkscape:connector-curvature="0"
         style="fill:#eaeaea" /><path
         d="m 202.104,389.219 c 0.661,-0.361 1.458,-0.301 2.091,0.045 0,1.834 -0.166,3.744 -0.166,5.58 -0.752,-0.211 -1.413,-0.211 -1.91,-0.03 0,-1.791 -0.015,-3.835 -0.015,-5.595 z"
         id="path429"
         inkscape:connector-curvature="0"
         style="fill:#ededed" /><path
         d="m 202.299,389.144 c 0.557,-0.255 1.248,-0.15 1.76,0.075 0,1.834 -0.196,3.76 -0.196,5.595 -0.602,-0.181 -1.142,-0.181 -1.563,-0.06 -0.001,-1.76 -0.001,-3.836 -0.001,-5.61 z"
         id="path431"
         inkscape:connector-curvature="0"
         style="fill:#f0f0f0" /><path
         d="m 202.509,389.099 c 0.436,-0.151 1.023,-0.03 1.429,0.075 0,1.82 -0.241,3.775 -0.241,5.609 -0.45,-0.15 -0.871,-0.166 -1.232,-0.075 -0.001,-1.774 0.044,-3.851 0.044,-5.609 z"
         id="path433"
         inkscape:connector-curvature="0"
         style="fill:#f2f2f2" /></g><path
       d="m 202.721,389.008 c 0.3,-0.029 0.796,0.136 1.098,0.106 0,1.834 -0.286,3.804 -0.286,5.64 -0.302,-0.167 -0.602,-0.182 -0.903,-0.106 -0.001,-1.759 0.091,-3.88 0.091,-5.64 z"
       id="path435"
       inkscape:connector-curvature="0"
       style="fill:#f5f5f5" /><path
       d="m 201.427,395.625 c 1.143,-0.646 2.226,-0.285 3.339,0.091 0,0.827 0,1.669 0,2.496 -1.323,-0.451 -2.437,-0.422 -3.265,0.015 0,-0.797 -0.089,-1.804 -0.074,-2.602 z"
       id="path437"
       inkscape:connector-curvature="0"
       style="fill:#e2e2e2" /><g
       id="g439"><path
         d="m 201.607,395.564 c 1.038,-0.525 2.046,-0.225 3.023,0.105 0,0.828 -0.03,1.67 -0.03,2.512 -1.188,-0.36 -2.226,-0.285 -2.918,0 0,-0.812 -0.075,-1.804 -0.075,-2.617 z"
         id="path441"
         inkscape:connector-curvature="0"
         style="fill:#e5e5e5" /><path
         d="m 201.803,395.521 c 0.918,-0.452 1.819,-0.181 2.707,0.09 0,0.827 -0.075,1.7 -0.075,2.542 -1.038,-0.331 -1.955,-0.256 -2.588,0 0,-0.813 -0.044,-1.821 -0.044,-2.632 z"
         id="path443"
         inkscape:connector-curvature="0"
         style="fill:#e7e7e7" /><path
         d="m 201.999,395.475 c 0.797,-0.36 1.609,-0.135 2.376,0.075 0,0.842 -0.105,1.729 -0.105,2.558 -0.902,-0.257 -1.684,-0.211 -2.256,0 -0.001,-0.813 -0.031,-1.837 -0.015,-2.633 z"
         id="path445"
         inkscape:connector-curvature="0"
         style="fill:#eaeaea" /><path
         d="m 202.179,395.43 c 0.677,-0.286 1.429,-0.09 2.06,0.061 0,0.826 -0.135,1.76 -0.135,2.586 -0.737,-0.209 -1.413,-0.18 -1.925,-0.016 0,-0.811 0,-1.834 0,-2.631 z"
         id="path447"
         inkscape:connector-curvature="0"
         style="fill:#ededed" /><path
         d="m 202.375,395.385 c 0.54,-0.195 1.218,-0.045 1.729,0.061 0,0.811 -0.166,1.773 -0.166,2.602 -0.601,-0.166 -1.143,-0.15 -1.579,-0.016 0,-0.827 0.016,-1.85 0.016,-2.647 z"
         id="path449"
         inkscape:connector-curvature="0"
         style="fill:#f0f0f0" /><path
         d="m 202.57,395.324 c 0.422,-0.104 1.008,0.016 1.414,0.046 0,0.842 -0.226,1.819 -0.226,2.646 -0.438,-0.12 -0.857,-0.105 -1.233,-0.03 0,-0.811 0.045,-1.849 0.045,-2.662 z"
         id="path451"
         inkscape:connector-curvature="0"
         style="fill:#f2f2f2" /></g><path
       d="m 202.765,395.279 c 0.285,-0.016 0.797,0.061 1.098,0.045 0,0.828 -0.255,1.835 -0.255,2.662 -0.316,-0.075 -0.616,-0.09 -0.903,-0.045 0,-0.796 0.046,-1.864 0.06,-2.662 z"
       id="path453"
       inkscape:connector-curvature="0"
       style="fill:#f5f5f5" /><path
       d="m 198.48,378.933 c -0.256,1.128 -0.241,1.639 -1.023,2.301 -0.091,0.677 -0.857,1.022 -0.962,1.699 -0.09,0.933 0.315,1.624 0.21,2.571 0.105,0.527 0.392,1.098 0.496,1.64 0.136,0.392 0.03,0.526 0.15,0.917 -0.044,0.227 -0.526,0.857 -0.571,1.083 0.707,-0.466 1.429,-0.932 2.12,-1.384 0.451,-0.375 0.888,-0.736 1.324,-1.098 1.007,-0.105 2.029,-0.18 3.053,-0.271 0,0 1.474,1.157 1.865,1.203 0.391,0.061 1.202,0.331 1.202,0.331 0.212,-0.076 0.436,-0.15 0.662,-0.211 -0.36,-0.256 -0.692,-0.496 -1.037,-0.722 -0.798,-0.406 -1.58,-0.812 -2.361,-1.203 -0.979,0 -1.971,0.03 -2.947,0.045 -0.527,0 -1.069,0 -1.595,0 -0.045,-0.271 -0.075,-0.541 -0.105,-0.826 0.016,-0.271 0.226,-0.452 0.241,-0.724 0.586,-0.18 0.977,-0.465 1.564,-0.631 0.705,0 1.413,0.031 2.135,0.045 0.586,0.045 0.888,0.045 1.488,0.105 0.646,0 1.038,1.204 1.686,1.204 -0.782,-0.196 -0.993,-1.519 -1.761,-1.685 -0.691,-0.166 -1.383,-0.331 -2.061,-0.496 -0.826,0.18 -1.653,0.36 -2.466,0.54 -0.346,0.347 -0.888,0.783 -1.233,1.144 -0.45,0.105 -0.722,0.12 -1.172,0.227 -0.031,-0.257 0.104,-0.467 0.061,-0.707 0.495,-0.316 0.812,-0.678 1.291,-0.993 0.017,-0.542 0.047,-1.098 0.061,-1.64 0,0 0.361,-1.488 0.407,-1.76 0.061,-0.285 -0.166,-1.203 -0.166,-1.203 -0.21,-0.164 -0.376,-0.391 -0.587,-0.557 -0.135,0.168 0.15,0.904 0.031,1.056 z"
       id="path455"
       inkscape:connector-curvature="0"
       style="fill:#6e6e6e" /><path
       d="m 196.991,394.633 c 0.392,-0.061 1.925,1.022 2.136,0.316 0.136,-0.438 -0.105,-0.947 -0.166,-1.43 -0.074,-0.541 -0.24,-1.127 -0.271,-1.684 -0.03,-0.467 0.074,-0.963 0.044,-1.43 0,-0.239 -0.285,-0.525 -0.21,-0.781 0.091,-0.285 0.497,-0.436 0.708,-0.646 0.286,-0.271 0.495,-0.782 0.887,-0.887 0.752,-0.197 1.579,0.074 2.346,-0.062 0.301,-0.045 0.541,-0.36 0.812,-0.542 0,0 1.008,0.633 1.368,0.934 0.361,0.315 1.098,0.722 1.098,0.722 0.075,0.481 0.542,1.474 -0.872,0.165 -0.828,0 -1.669,-0.21 -2.466,-0.119 -0.558,0.074 -1.94,0.946 -2.227,1.428 -0.165,0.271 -0.12,0.631 -0.12,0.934 -0.015,0.856 0.061,1.849 0,2.69 -0.015,0.331 -0.15,0.663 -0.165,0.993 0,0.33 0.271,1.879 -0.166,1.971 -0.736,0.18 -1.353,-0.377 -2.074,-0.437 -0.542,-0.03 -1.038,-2.105 -0.662,-2.135 z"
       id="path457"
       inkscape:connector-curvature="0"
       style="fill:#6e6e6e" /><path
       d="m 208.977,393.475 c -0.241,1.083 -0.361,2.225 -0.707,3.294 -0.316,0.933 -0.768,1.819 -1.264,2.646 -0.36,0.587 -1.022,1.022 -1.368,1.64 -0.332,0.556 -0.467,1.232 -0.661,1.864 -0.151,0.466 -0.257,0.964 -0.437,1.429 -0.241,0.572 -0.286,1.459 -0.874,1.699 -0.556,0.24 -1.277,-0.21 -1.803,-0.541 -0.587,-0.375 -1.158,-0.902 -1.43,-1.549 -0.24,-0.572 0.045,-1.264 0,-1.865 -0.044,-0.586 -0.195,-1.174 -0.315,-1.744 -0.211,-0.933 -0.646,-1.819 -0.722,-2.752 0,-0.151 0.437,-0.091 0.496,0.059 0.24,0.513 0.104,1.145 0.285,1.701 0.091,0.314 0.422,0.557 0.527,0.871 0.119,0.346 0.074,0.737 0.165,1.099 0.12,0.451 0.481,0.256 0.827,0.542 0.361,0.285 0.632,0.375 1.083,0.36 0.421,-0.015 0.54,-0.257 1.008,0.015 0.42,-0.15 0.856,-0.301 1.293,-0.256 0.225,-0.316 -0.046,-0.797 0.061,-1.158 0.06,-0.24 0.405,-0.359 0.496,-0.602 0.15,-0.421 0.15,-0.932 0.226,-1.367 0.06,-0.406 -0.016,-0.888 0.211,-1.205 0.194,-0.27 0.646,-0.225 0.932,-0.389 0.226,-0.136 0.437,-0.347 0.602,-0.557 0.181,-0.227 0.3,-0.527 0.436,-0.768 -0.001,0 0.933,-2.511 0.933,-2.466 z"
       id="path459"
       inkscape:connector-curvature="0"
       style="fill:#333333" /><path
       d="m 197.668,360.228 c -1.354,2.378 -0.139,4.798 0.478,6.993 l -0.251,-0.035 c -0.762,-2.129 -1.789,-4.697 -0.404,-6.981 l 0.177,0.023 z"
       id="path461"
       inkscape:connector-curvature="0"
       style="fill:#bbbcbf" /></g></svg>